<?xml version="1.0" encoding="UTF-8"?>
<svg xmlns="http://www.w3.org/2000/svg" xmlns:xlink="http://www.w3.org/1999/xlink" width="3952" height="1463" viewBox="0 0 3952 1463">
<path fill-rule="nonzero" fill="rgb(29.80957%, 33.714294%, 41.575623%)" fill-opacity="1" d="M 0 1462.722656 L 3951.671875 1462.722656 L 3951.671875 0.00390625 L 0 0.00390625 Z M 0 1462.722656 "/>
<path fill-rule="nonzero" fill="rgb(84.764099%, 87.109375%, 91.40625%)" fill-opacity="1" d="M 0 0 L 0 274.429688 L 263.082031 11.351562 C 266.289062 8.140625 268.1875 4.148438 268.824219 0 Z M 0 0 "/>
<path fill-rule="nonzero" fill="rgb(81.639099%, 52.929688%, 43.920898%)" fill-opacity="1" d="M 64.152344 0 C 63.722656 0.371094 63.300781 0.761719 62.894531 1.160156 C 57.691406 6.371094 54.769531 13.429688 54.769531 20.78125 C 54.769531 28.140625 57.691406 35.191406 62.894531 40.398438 C 68.097656 45.601562 75.15625 48.519531 82.511719 48.519531 C 89.871094 48.519531 96.925781 45.601562 102.128906 40.398438 C 107.332031 35.191406 110.257812 28.140625 110.257812 20.78125 C 110.257812 13.429688 107.332031 6.371094 102.128906 1.160156 C 101.722656 0.761719 101.304688 0.371094 100.875 0 Z M 64.152344 0 "/>
<path fill-rule="nonzero" fill="rgb(36.863708%, 50.584412%, 67.381287%)" fill-opacity="1" d="M 129.941406 0 C 129.511719 0.371094 129.09375 0.761719 128.6875 1.160156 C 123.484375 6.371094 120.5625 13.429688 120.5625 20.78125 C 120.5625 28.140625 123.484375 35.191406 128.6875 40.398438 C 133.890625 45.601562 140.945312 48.519531 148.304688 48.519531 C 155.660156 48.519531 162.71875 45.601562 167.921875 40.398438 C 173.125 35.191406 176.046875 28.140625 176.046875 20.78125 C 176.046875 13.429688 173.125 6.371094 167.921875 1.160156 C 167.515625 0.761719 167.09375 0.371094 166.664062 0 Z M 129.941406 0 "/>
<path fill-rule="nonzero" fill="rgb(70.506287%, 55.664062%, 67.771912%)" fill-opacity="1" d="M 35.789062 154.101562 C 33.839844 154.101562 31.890625 154.851562 30.394531 156.339844 L 14.414062 172.320312 C 11.425781 175.308594 11.425781 180.121094 14.414062 183.109375 C 17.40625 186.101562 22.21875 186.101562 25.207031 183.109375 L 41.1875 167.128906 C 44.175781 164.140625 44.175781 159.328125 41.1875 156.339844 C 39.691406 154.851562 37.742188 154.101562 35.789062 154.101562 Z M 35.789062 154.101562 "/>
<path fill-rule="nonzero" fill="rgb(70.506287%, 55.664062%, 67.771912%)" fill-opacity="1" d="M 74.421875 115.46875 C 72.472656 115.46875 70.519531 116.210938 69.027344 117.710938 L 53.046875 133.691406 C 50.058594 136.679688 50.058594 141.488281 53.046875 144.480469 C 56.035156 147.46875 60.851562 147.46875 63.839844 144.480469 L 79.816406 128.5 C 82.808594 125.511719 82.808594 120.699219 79.816406 117.710938 C 78.324219 116.210938 76.371094 115.46875 74.421875 115.46875 Z M 74.421875 115.46875 "/>
<path fill-rule="nonzero" fill="rgb(84.764099%, 87.109375%, 91.40625%)" fill-opacity="1" d="M 106.390625 456.21875 C 101.167969 456.21875 95.945312 458.21875 91.945312 462.21875 L 63.652344 490.515625 L 51.152344 478.015625 C 49.746094 476.609375 47.480469 476.609375 46.074219 478.015625 L 0 524.09375 L 0 896.441406 L 263.082031 633.359375 C 271.085938 625.355469 271.085938 612.472656 263.082031 604.46875 L 120.835938 462.21875 C 116.835938 458.21875 111.613281 456.21875 106.390625 456.21875 Z M 106.390625 456.21875 "/>
<path fill-rule="nonzero" fill="rgb(63.867188%, 74.414062%, 54.881287%)" fill-opacity="1" d="M 81.476562 549.277344 C 74.480469 549.539062 67.84375 552.4375 62.894531 557.386719 C 52.0625 568.21875 52.0625 585.785156 62.894531 596.617188 C 68.097656 601.820312 75.15625 604.742188 82.511719 604.742188 C 89.871094 604.742188 96.925781 601.820312 102.128906 596.617188 C 112.964844 585.785156 112.964844 568.21875 102.128906 557.386719 C 96.671875 551.925781 89.1875 548.988281 81.476562 549.277344 Z M 81.476562 549.277344 "/>
<path fill-rule="nonzero" fill="rgb(74.804688%, 38.035583%, 41.575623%)" fill-opacity="1" d="M 147.265625 549.277344 C 140.273438 549.539062 133.636719 552.4375 128.6875 557.386719 C 117.851562 568.21875 117.851562 585.785156 128.6875 596.617188 C 133.890625 601.820312 140.945312 604.742188 148.304688 604.742188 C 155.660156 604.742188 162.71875 601.820312 167.921875 596.617188 C 178.753906 585.785156 178.753906 568.21875 167.921875 557.386719 C 162.464844 551.925781 154.980469 548.988281 147.265625 549.277344 Z M 147.265625 549.277344 "/>
<path fill-rule="nonzero" fill="rgb(81.639099%, 52.929688%, 43.920898%)" fill-opacity="1" d="M 81.476562 615.070312 C 74.480469 615.332031 67.84375 618.226562 62.894531 623.175781 C 57.691406 628.375 54.769531 635.433594 54.769531 642.792969 C 54.769531 650.148438 57.691406 657.207031 62.894531 662.410156 C 68.097656 667.609375 75.15625 670.535156 82.511719 670.535156 C 89.871094 670.535156 96.925781 667.609375 102.128906 662.410156 C 107.332031 657.207031 110.257812 650.148438 110.257812 642.792969 C 110.257812 635.433594 107.332031 628.375 102.128906 623.175781 C 96.671875 617.71875 89.1875 614.78125 81.476562 615.070312 Z M 81.476562 615.070312 "/>
<path fill-rule="nonzero" fill="rgb(36.863708%, 50.584412%, 67.381287%)" fill-opacity="1" d="M 147.265625 615.066406 C 140.269531 615.328125 133.636719 618.226562 128.6875 623.175781 C 123.484375 628.375 120.5625 635.433594 120.5625 642.792969 C 120.5625 650.148438 123.484375 657.207031 128.6875 662.410156 C 133.890625 667.609375 140.945312 670.535156 148.304688 670.535156 C 155.660156 670.535156 162.71875 667.609375 167.921875 662.410156 C 173.125 657.207031 176.046875 650.148438 176.046875 642.792969 C 176.046875 635.433594 173.125 628.375 167.921875 623.175781 C 162.464844 617.714844 154.976562 614.777344 147.265625 615.066406 Z M 147.265625 615.066406 "/>
<path fill-rule="nonzero" fill="rgb(70.506287%, 55.664062%, 67.771912%)" fill-opacity="1" d="M 35.789062 776.109375 C 33.839844 776.109375 31.890625 776.855469 30.394531 778.351562 L 14.414062 794.332031 C 11.425781 797.320312 11.425781 802.132812 14.414062 805.121094 C 17.40625 808.113281 22.21875 808.113281 25.207031 805.121094 L 41.1875 789.140625 C 44.175781 786.152344 44.175781 781.339844 41.1875 778.351562 C 39.691406 776.855469 37.742188 776.109375 35.789062 776.109375 Z M 35.789062 776.109375 "/>
<path fill-rule="nonzero" fill="rgb(70.506287%, 55.664062%, 67.771912%)" fill-opacity="1" d="M 74.421875 737.480469 C 72.472656 737.480469 70.519531 738.226562 69.027344 739.71875 L 53.046875 755.699219 C 50.058594 758.6875 50.058594 763.5 53.046875 766.488281 C 56.035156 769.480469 60.851562 769.480469 63.839844 766.488281 L 79.816406 750.511719 C 82.808594 747.523438 82.808594 742.707031 79.816406 739.71875 C 78.324219 738.226562 76.371094 737.480469 74.421875 737.480469 Z M 74.421875 737.480469 "/>
<path fill-rule="nonzero" fill="rgb(84.764099%, 87.109375%, 91.40625%)" fill-opacity="1" d="M 106.390625 1078.230469 C 101.167969 1078.230469 95.945312 1080.230469 91.945312 1084.230469 L 63.652344 1112.527344 L 51.152344 1100.027344 C 49.746094 1098.621094 47.480469 1098.621094 46.074219 1100.027344 L 0 1146.101562 L 0 1462.722656 L 55.730469 1462.722656 L 263.082031 1255.367188 C 271.085938 1247.367188 271.085938 1234.480469 263.082031 1226.476562 L 120.835938 1084.230469 C 116.835938 1080.230469 111.613281 1078.230469 106.390625 1078.230469 Z M 106.390625 1078.230469 "/>
<path fill-rule="nonzero" fill="rgb(63.867188%, 74.414062%, 54.881287%)" fill-opacity="1" d="M 81.476562 1171.289062 C 74.480469 1171.550781 67.84375 1174.445312 62.894531 1179.394531 C 57.691406 1184.597656 54.769531 1191.652344 54.769531 1199.011719 C 54.769531 1206.367188 57.691406 1213.425781 62.894531 1218.628906 C 68.097656 1223.832031 75.15625 1226.753906 82.511719 1226.753906 C 89.871094 1226.753906 96.925781 1223.832031 102.128906 1218.628906 C 107.332031 1213.425781 110.257812 1206.367188 110.257812 1199.011719 C 110.257812 1191.652344 107.332031 1184.597656 102.128906 1179.394531 C 96.671875 1173.9375 89.1875 1171 81.476562 1171.289062 Z M 81.476562 1171.289062 "/>
<path fill-rule="nonzero" fill="rgb(74.804688%, 38.035583%, 41.575623%)" fill-opacity="1" d="M 147.265625 1171.289062 C 140.273438 1171.550781 133.636719 1174.445312 128.6875 1179.394531 C 123.484375 1184.597656 120.5625 1191.652344 120.5625 1199.011719 C 120.5625 1206.367188 123.484375 1213.425781 128.6875 1218.628906 C 133.890625 1223.832031 140.945312 1226.753906 148.304688 1226.753906 C 155.660156 1226.753906 162.71875 1223.832031 167.921875 1218.628906 C 173.125 1213.425781 176.046875 1206.367188 176.046875 1199.011719 C 176.046875 1191.652344 173.125 1184.597656 167.921875 1179.394531 C 162.464844 1173.9375 154.980469 1171 147.265625 1171.289062 Z M 147.265625 1171.289062 "/>
<path fill-rule="nonzero" fill="rgb(81.639099%, 52.929688%, 43.920898%)" fill-opacity="1" d="M 81.476562 1237.078125 C 74.480469 1237.339844 67.84375 1240.234375 62.894531 1245.183594 C 52.0625 1256.019531 52.0625 1273.582031 62.894531 1284.417969 C 68.097656 1289.621094 75.15625 1292.542969 82.511719 1292.542969 C 89.871094 1292.542969 96.925781 1289.621094 102.128906 1284.417969 C 112.964844 1273.582031 112.964844 1256.019531 102.128906 1245.183594 C 96.671875 1239.726562 89.1875 1236.789062 81.476562 1237.078125 Z M 81.476562 1237.078125 "/>
<path fill-rule="nonzero" fill="rgb(36.863708%, 50.584412%, 67.381287%)" fill-opacity="1" d="M 147.265625 1237.078125 C 140.273438 1237.339844 133.636719 1240.234375 128.6875 1245.183594 C 117.851562 1256.019531 117.851562 1273.582031 128.6875 1284.417969 C 133.890625 1289.621094 140.945312 1292.542969 148.304688 1292.542969 C 155.660156 1292.542969 162.71875 1289.621094 167.921875 1284.417969 C 178.753906 1273.582031 178.753906 1256.019531 167.921875 1245.183594 C 162.464844 1239.726562 154.980469 1236.789062 147.265625 1237.078125 Z M 147.265625 1237.078125 "/>
<path fill-rule="nonzero" fill="rgb(70.506287%, 55.664062%, 67.771912%)" fill-opacity="1" d="M 35.789062 1398.117188 C 33.839844 1398.117188 31.890625 1398.867188 30.394531 1400.359375 L 14.414062 1416.339844 C 11.425781 1419.328125 11.425781 1424.140625 14.414062 1427.132812 C 17.40625 1430.121094 22.21875 1430.121094 25.207031 1427.132812 L 41.1875 1411.152344 C 44.175781 1408.164062 44.175781 1403.351562 41.1875 1400.359375 C 39.691406 1398.867188 37.742188 1398.117188 35.789062 1398.117188 Z M 35.789062 1398.117188 "/>
<path fill-rule="nonzero" fill="rgb(70.506287%, 55.664062%, 67.771912%)" fill-opacity="1" d="M 74.421875 1359.488281 C 72.472656 1359.488281 70.519531 1360.234375 69.027344 1361.730469 L 53.046875 1377.707031 C 50.058594 1380.695312 50.058594 1385.511719 53.046875 1388.5 C 56.035156 1391.488281 60.851562 1391.488281 63.839844 1388.5 L 79.816406 1372.519531 C 82.808594 1369.53125 82.808594 1364.71875 79.816406 1361.730469 C 78.324219 1360.234375 76.371094 1359.488281 74.421875 1359.488281 Z M 74.421875 1359.488281 "/>
<path fill-rule="nonzero" fill="rgb(84.764099%, 87.109375%, 91.40625%)" fill-opacity="1" d="M 598.679688 0 L 499.203125 99.480469 L 486.703125 86.980469 C 485.296875 85.570312 483.03125 85.570312 481.625 86.980469 L 419.234375 149.371094 C 417.828125 150.78125 417.828125 153.039062 419.234375 154.449219 L 431.734375 166.941406 L 403.441406 195.238281 C 395.4375 203.238281 395.4375 216.128906 403.441406 224.128906 L 545.6875 366.378906 C 553.6875 374.378906 566.574219 374.378906 574.578125 366.378906 L 929.605469 11.351562 C 932.8125 8.140625 934.710938 4.148438 935.347656 0 Z M 598.679688 0 "/>
<path fill-rule="nonzero" fill="rgb(29.80957%, 33.714294%, 41.575623%)" fill-opacity="1" d="M 518.222656 149.019531 C 516.707031 149.019531 515.191406 149.601562 514.027344 150.769531 L 483.179688 181.609375 C 480.855469 183.941406 480.855469 187.679688 483.179688 190 L 511.882812 218.699219 L 483.179688 247.410156 C 480.855469 249.730469 480.855469 253.46875 483.179688 255.789062 L 514.027344 286.640625 C 516.351562 288.960938 520.089844 288.960938 522.414062 286.640625 L 551.117188 257.941406 L 579.820312 286.640625 C 582.140625 288.960938 585.882812 288.960938 588.203125 286.640625 L 619.054688 255.789062 C 621.375 253.46875 621.375 249.730469 619.054688 247.410156 L 590.351562 218.699219 L 619.050781 190 C 621.375 187.679688 621.375 183.941406 619.050781 181.609375 L 588.203125 150.769531 C 585.882812 148.441406 582.140625 148.441406 579.820312 150.769531 L 551.117188 179.46875 L 522.414062 150.769531 C 521.25 149.601562 519.734375 149.019531 518.222656 149.019531 Z M 518.222656 149.019531 "/>
<path fill-rule="nonzero" fill="rgb(81.639099%, 52.929688%, 43.920898%)" fill-opacity="1" d="M 730.675781 0 C 730.242188 0.371094 729.824219 0.761719 729.417969 1.160156 C 724.214844 6.371094 721.292969 13.429688 721.292969 20.78125 C 721.292969 28.140625 724.214844 35.191406 729.417969 40.398438 C 734.621094 45.601562 741.679688 48.519531 749.035156 48.519531 C 756.394531 48.519531 763.449219 45.601562 768.652344 40.398438 C 773.855469 35.191406 776.777344 28.140625 776.777344 20.78125 C 776.777344 13.429688 773.855469 6.371094 768.652344 1.160156 C 768.246094 0.761719 767.828125 0.371094 767.398438 0 Z M 730.675781 0 "/>
<path fill-rule="nonzero" fill="rgb(36.863708%, 50.584412%, 67.381287%)" fill-opacity="1" d="M 796.464844 0 C 796.035156 0.371094 795.617188 0.761719 795.210938 1.160156 C 790.007812 6.371094 787.082031 13.429688 787.082031 20.78125 C 787.082031 28.140625 790.007812 35.191406 795.210938 40.398438 C 800.414062 45.601562 807.46875 48.519531 814.828125 48.519531 C 822.183594 48.519531 829.242188 45.601562 834.445312 40.398438 C 839.648438 35.191406 842.570312 28.140625 842.570312 20.78125 C 842.570312 13.429688 839.648438 6.371094 834.445312 1.160156 C 834.035156 0.761719 833.617188 0.371094 833.1875 0 Z M 796.464844 0 "/>
<path fill-rule="nonzero" fill="rgb(70.506287%, 55.664062%, 67.771912%)" fill-opacity="1" d="M 702.3125 154.101562 C 700.363281 154.101562 698.414062 154.851562 696.917969 156.339844 L 680.9375 172.320312 C 677.949219 175.308594 677.949219 180.121094 680.9375 183.109375 C 683.925781 186.101562 688.742188 186.101562 691.730469 183.109375 L 707.710938 167.128906 C 710.699219 164.140625 710.699219 159.328125 707.710938 156.339844 C 706.214844 154.851562 704.265625 154.101562 702.3125 154.101562 Z M 702.3125 154.101562 "/>
<path fill-rule="nonzero" fill="rgb(70.506287%, 55.664062%, 67.771912%)" fill-opacity="1" d="M 740.945312 115.46875 C 738.992188 115.46875 737.042969 116.210938 735.550781 117.710938 L 719.570312 133.691406 C 716.582031 136.679688 716.582031 141.488281 719.570312 144.480469 C 722.558594 147.46875 727.375 147.46875 730.363281 144.480469 L 746.339844 128.5 C 749.328125 125.511719 749.328125 120.699219 746.339844 117.710938 C 744.847656 116.210938 742.894531 115.46875 740.945312 115.46875 Z M 740.945312 115.46875 "/>
<path fill-rule="nonzero" fill="rgb(84.764099%, 87.109375%, 91.40625%)" fill-opacity="1" d="M 772.914062 456.21875 C 767.691406 456.21875 762.46875 458.21875 758.46875 462.21875 L 730.175781 490.515625 L 717.675781 478.015625 C 716.269531 476.609375 714.003906 476.609375 712.597656 478.015625 L 650.207031 540.40625 C 648.800781 541.8125 648.800781 544.078125 650.207031 545.484375 L 662.707031 557.984375 L 499.203125 721.488281 L 486.703125 708.988281 C 485.296875 707.582031 483.03125 707.582031 481.625 708.988281 L 419.234375 771.378906 C 417.828125 772.785156 417.828125 775.050781 419.234375 776.457031 L 431.734375 788.957031 L 403.441406 817.25 C 395.4375 825.253906 395.4375 838.136719 403.441406 846.140625 L 545.6875 988.386719 C 553.6875 996.390625 566.574219 996.390625 574.578125 988.386719 L 929.605469 633.359375 C 937.609375 625.355469 937.609375 612.472656 929.605469 604.46875 L 787.359375 462.21875 C 783.359375 458.21875 778.136719 456.21875 772.914062 456.21875 Z M 772.914062 456.21875 "/>
<path fill-rule="nonzero" fill="rgb(29.80957%, 33.714294%, 41.575623%)" fill-opacity="1" d="M 518.222656 771.03125 C 516.707031 771.03125 515.191406 771.613281 514.027344 772.777344 L 483.179688 803.625 C 480.855469 805.945312 480.855469 809.6875 483.179688 812.011719 L 511.882812 840.710938 L 483.179688 869.414062 C 480.855469 871.738281 480.855469 875.476562 483.179688 877.800781 L 514.027344 908.648438 C 516.351562 910.972656 520.089844 910.972656 522.414062 908.648438 L 551.117188 879.945312 L 579.820312 908.648438 C 582.140625 910.972656 585.882812 910.972656 588.203125 908.648438 L 619.054688 877.796875 C 621.375 875.476562 621.375 871.738281 619.054688 869.414062 L 590.351562 840.710938 L 619.050781 812.011719 C 621.375 809.6875 621.375 805.945312 619.050781 803.625 L 588.203125 772.777344 C 585.882812 770.453125 582.140625 770.453125 579.820312 772.777344 L 551.117188 801.476562 L 522.414062 772.777344 C 521.25 771.613281 519.734375 771.03125 518.222656 771.03125 Z M 518.222656 771.03125 "/>
<path fill-rule="nonzero" fill="rgb(63.867188%, 74.414062%, 54.881287%)" fill-opacity="1" d="M 748 549.277344 C 741.003906 549.539062 734.367188 552.4375 729.417969 557.386719 C 718.585938 568.21875 718.585938 585.785156 729.417969 596.617188 C 734.621094 601.820312 741.679688 604.742188 749.035156 604.742188 C 756.394531 604.742188 763.449219 601.820312 768.652344 596.617188 C 779.488281 585.785156 779.488281 568.21875 768.652344 557.386719 C 763.195312 551.925781 755.710938 548.988281 748 549.277344 Z M 748 549.277344 "/>
<path fill-rule="nonzero" fill="rgb(74.804688%, 38.035583%, 41.575623%)" fill-opacity="1" d="M 813.789062 549.277344 C 806.796875 549.539062 800.160156 552.4375 795.210938 557.386719 C 790.007812 562.585938 787.082031 569.644531 787.082031 577.003906 C 787.082031 584.359375 790.007812 591.417969 795.210938 596.621094 C 800.414062 601.820312 807.46875 604.746094 814.828125 604.746094 C 822.183594 604.746094 829.242188 601.820312 834.445312 596.621094 C 839.648438 591.417969 842.570312 584.359375 842.570312 577.003906 C 842.570312 569.644531 839.648438 562.585938 834.445312 557.386719 C 828.988281 551.925781 821.503906 548.988281 813.789062 549.277344 Z M 813.789062 549.277344 "/>
<path fill-rule="nonzero" fill="rgb(81.639099%, 52.929688%, 43.920898%)" fill-opacity="1" d="M 748 615.070312 C 741.003906 615.332031 734.367188 618.226562 729.417969 623.175781 C 724.214844 628.375 721.292969 635.433594 721.292969 642.792969 C 721.292969 650.148438 724.214844 657.207031 729.417969 662.410156 C 734.621094 667.609375 741.679688 670.535156 749.035156 670.535156 C 756.394531 670.535156 763.449219 667.609375 768.652344 662.410156 C 773.855469 657.207031 776.777344 650.148438 776.777344 642.792969 C 776.777344 635.433594 773.855469 628.375 768.652344 623.175781 C 763.195312 617.71875 755.710938 614.78125 748 615.070312 Z M 748 615.070312 "/>
<path fill-rule="nonzero" fill="rgb(36.863708%, 50.584412%, 67.381287%)" fill-opacity="1" d="M 813.789062 615.070312 C 806.796875 615.332031 800.160156 618.226562 795.210938 623.175781 C 790.007812 628.375 787.082031 635.433594 787.082031 642.792969 C 787.082031 650.148438 790.007812 657.207031 795.210938 662.410156 C 800.414062 667.609375 807.46875 670.535156 814.828125 670.535156 C 822.183594 670.535156 829.242188 667.609375 834.445312 662.410156 C 839.648438 657.207031 842.570312 650.148438 842.570312 642.792969 C 842.570312 635.433594 839.648438 628.375 834.445312 623.175781 C 828.984375 617.71875 821.503906 614.78125 813.789062 615.070312 Z M 813.789062 615.070312 "/>
<path fill-rule="nonzero" fill="rgb(70.506287%, 55.664062%, 67.771912%)" fill-opacity="1" d="M 702.3125 776.109375 C 700.363281 776.109375 698.414062 776.855469 696.917969 778.351562 L 680.9375 794.328125 C 677.949219 797.316406 677.949219 802.132812 680.9375 805.121094 C 683.925781 808.109375 688.742188 808.109375 691.730469 805.121094 L 707.710938 789.140625 C 710.699219 786.152344 710.699219 781.339844 707.710938 778.351562 C 706.214844 776.855469 704.265625 776.109375 702.3125 776.109375 Z M 702.3125 776.109375 "/>
<path fill-rule="nonzero" fill="rgb(70.506287%, 55.664062%, 67.771912%)" fill-opacity="1" d="M 740.945312 737.480469 C 738.992188 737.480469 737.042969 738.226562 735.550781 739.71875 L 719.570312 755.699219 C 716.582031 758.6875 716.582031 763.5 719.570312 766.488281 C 722.558594 769.480469 727.375 769.480469 730.363281 766.488281 L 746.339844 750.511719 C 749.328125 747.523438 749.328125 742.707031 746.339844 739.71875 C 744.847656 738.226562 742.894531 737.480469 740.945312 737.480469 Z M 740.945312 737.480469 "/>
<path fill-rule="nonzero" fill="rgb(84.764099%, 87.109375%, 91.40625%)" fill-opacity="1" d="M 772.914062 1078.230469 C 767.691406 1078.230469 762.46875 1080.230469 758.46875 1084.230469 L 730.175781 1112.527344 L 717.675781 1100.027344 C 716.269531 1098.621094 714.003906 1098.621094 712.597656 1100.027344 L 650.207031 1162.417969 C 648.800781 1163.824219 648.800781 1166.085938 650.207031 1167.492188 L 662.707031 1179.992188 L 499.203125 1343.496094 L 486.703125 1331 C 485.296875 1329.589844 483.03125 1329.589844 481.625 1331 L 419.234375 1393.390625 C 417.828125 1394.796875 417.828125 1397.0625 419.234375 1398.46875 L 431.734375 1410.964844 L 403.441406 1439.257812 C 397.070312 1445.628906 395.789062 1455.089844 399.5625 1462.722656 L 722.253906 1462.722656 L 929.605469 1255.367188 C 937.609375 1247.367188 937.609375 1234.480469 929.605469 1226.476562 L 787.359375 1084.230469 C 783.359375 1080.230469 778.136719 1078.230469 772.914062 1078.230469 Z M 772.914062 1078.230469 "/>
<path fill-rule="nonzero" fill="rgb(29.80957%, 33.714294%, 41.575623%)" fill-opacity="1" d="M 518.222656 1393.042969 C 516.707031 1393.042969 515.191406 1393.625 514.027344 1394.785156 L 483.179688 1425.632812 C 480.855469 1427.957031 480.855469 1431.695312 483.179688 1434.019531 L 511.882812 1462.722656 L 590.351562 1462.722656 L 619.050781 1434.019531 C 621.375 1431.695312 621.375 1427.957031 619.050781 1425.632812 L 588.203125 1394.785156 C 585.882812 1392.460938 582.140625 1392.460938 579.820312 1394.785156 L 551.117188 1423.488281 L 522.414062 1394.785156 C 521.25 1393.625 519.734375 1393.042969 518.222656 1393.042969 Z M 518.222656 1393.042969 "/>
<path fill-rule="nonzero" fill="rgb(63.867188%, 74.414062%, 54.881287%)" fill-opacity="1" d="M 748 1171.289062 C 741.003906 1171.550781 734.367188 1174.445312 729.417969 1179.394531 C 724.214844 1184.597656 721.292969 1191.652344 721.292969 1199.011719 C 721.292969 1206.367188 724.214844 1213.425781 729.417969 1218.628906 C 734.621094 1223.832031 741.679688 1226.753906 749.035156 1226.753906 C 756.394531 1226.753906 763.449219 1223.832031 768.652344 1218.628906 C 773.855469 1213.425781 776.777344 1206.367188 776.777344 1199.011719 C 776.777344 1191.652344 773.855469 1184.597656 768.652344 1179.394531 C 763.195312 1173.9375 755.710938 1171 748 1171.289062 Z M 748 1171.289062 "/>
<path fill-rule="nonzero" fill="rgb(74.804688%, 38.035583%, 41.575623%)" fill-opacity="1" d="M 813.789062 1171.289062 C 806.796875 1171.550781 800.160156 1174.445312 795.210938 1179.394531 C 790.007812 1184.597656 787.082031 1191.652344 787.082031 1199.011719 C 787.082031 1206.367188 790.007812 1213.425781 795.210938 1218.628906 C 800.414062 1223.832031 807.46875 1226.753906 814.828125 1226.753906 C 822.183594 1226.753906 829.242188 1223.832031 834.445312 1218.628906 C 839.648438 1213.425781 842.570312 1206.367188 842.570312 1199.011719 C 842.570312 1191.652344 839.648438 1184.597656 834.445312 1179.394531 C 828.988281 1173.9375 821.503906 1171 813.789062 1171.289062 Z M 813.789062 1171.289062 "/>
<path fill-rule="nonzero" fill="rgb(81.639099%, 52.929688%, 43.920898%)" fill-opacity="1" d="M 748 1237.078125 C 741.003906 1237.339844 734.367188 1240.234375 729.417969 1245.183594 C 718.585938 1256.019531 718.585938 1273.582031 729.417969 1284.417969 C 734.621094 1289.621094 741.679688 1292.542969 749.035156 1292.542969 C 756.394531 1292.542969 763.449219 1289.621094 768.652344 1284.417969 C 779.488281 1273.582031 779.488281 1256.019531 768.652344 1245.183594 C 763.195312 1239.726562 755.710938 1236.789062 748 1237.078125 Z M 748 1237.078125 "/>
<path fill-rule="nonzero" fill="rgb(36.863708%, 50.584412%, 67.381287%)" fill-opacity="1" d="M 813.789062 1237.078125 C 806.796875 1237.339844 800.160156 1240.234375 795.210938 1245.183594 C 790.007812 1250.386719 787.082031 1257.441406 787.082031 1264.800781 C 787.082031 1272.15625 790.007812 1279.214844 795.210938 1284.417969 C 800.414062 1289.621094 807.46875 1292.542969 814.828125 1292.542969 C 822.183594 1292.542969 829.242188 1289.621094 834.445312 1284.417969 C 839.648438 1279.214844 842.570312 1272.15625 842.570312 1264.800781 C 842.570312 1257.441406 839.648438 1250.386719 834.445312 1245.183594 C 828.984375 1239.726562 821.503906 1236.789062 813.789062 1237.078125 Z M 813.789062 1237.078125 "/>
<path fill-rule="nonzero" fill="rgb(70.506287%, 55.664062%, 67.771912%)" fill-opacity="1" d="M 702.3125 1398.117188 C 700.363281 1398.117188 698.414062 1398.867188 696.917969 1400.359375 L 680.9375 1416.339844 C 677.949219 1419.328125 677.949219 1424.140625 680.9375 1427.132812 C 683.925781 1430.121094 688.742188 1430.121094 691.730469 1427.132812 L 707.710938 1411.152344 C 710.699219 1408.164062 710.699219 1403.347656 707.710938 1400.359375 C 706.214844 1398.867188 704.265625 1398.117188 702.3125 1398.117188 Z M 702.3125 1398.117188 "/>
<path fill-rule="nonzero" fill="rgb(70.506287%, 55.664062%, 67.771912%)" fill-opacity="1" d="M 740.945312 1359.488281 C 738.992188 1359.488281 737.042969 1360.234375 735.550781 1361.730469 L 719.570312 1377.707031 C 716.582031 1380.695312 716.582031 1385.511719 719.570312 1388.5 C 722.558594 1391.488281 727.375 1391.488281 730.363281 1388.5 L 746.339844 1372.519531 C 749.328125 1369.53125 749.328125 1364.71875 746.339844 1361.730469 C 744.847656 1360.234375 742.894531 1359.488281 740.945312 1359.488281 Z M 740.945312 1359.488281 "/>
<path fill-rule="nonzero" fill="rgb(84.764099%, 87.109375%, 91.40625%)" fill-opacity="1" d="M 1265.199219 0 L 1165.730469 99.480469 L 1153.230469 86.980469 C 1151.820312 85.570312 1149.558594 85.570312 1148.148438 86.980469 L 1085.761719 149.371094 C 1084.351562 150.78125 1084.351562 153.039062 1085.761719 154.449219 L 1098.261719 166.941406 L 1069.960938 195.238281 C 1061.960938 203.238281 1061.960938 216.128906 1069.960938 224.128906 L 1212.210938 366.378906 C 1220.210938 374.378906 1233.101562 374.378906 1241.101562 366.378906 L 1596.128906 11.351562 C 1599.339844 8.140625 1601.230469 4.148438 1601.871094 0 Z M 1265.199219 0 "/>
<path fill-rule="nonzero" fill="rgb(29.80957%, 33.714294%, 41.575623%)" fill-opacity="1" d="M 1184.738281 149.019531 C 1183.230469 149.019531 1181.710938 149.601562 1180.550781 150.769531 L 1149.699219 181.609375 C 1147.378906 183.941406 1147.378906 187.679688 1149.699219 190 L 1178.410156 218.699219 L 1149.699219 247.410156 C 1147.378906 249.730469 1147.378906 253.46875 1149.699219 255.789062 L 1180.550781 286.640625 C 1182.878906 288.960938 1186.609375 288.960938 1188.941406 286.640625 L 1217.640625 257.941406 L 1246.339844 286.640625 C 1248.660156 288.960938 1252.398438 288.960938 1254.730469 286.640625 L 1285.578125 255.789062 C 1287.898438 253.46875 1287.898438 249.730469 1285.578125 247.410156 L 1256.878906 218.699219 L 1285.570312 190 C 1287.898438 187.679688 1287.898438 183.941406 1285.570312 181.609375 L 1254.730469 150.769531 C 1252.398438 148.441406 1248.660156 148.441406 1246.339844 150.769531 L 1217.640625 179.46875 L 1188.941406 150.769531 C 1187.769531 149.601562 1186.261719 149.019531 1184.738281 149.019531 Z M 1184.738281 149.019531 "/>
<path fill-rule="nonzero" fill="rgb(81.639099%, 52.929688%, 43.920898%)" fill-opacity="1" d="M 1397.199219 0 C 1396.769531 0.371094 1396.351562 0.761719 1395.941406 1.160156 C 1390.738281 6.371094 1387.820312 13.429688 1387.820312 20.78125 C 1387.820312 28.140625 1390.738281 35.191406 1395.941406 40.398438 C 1401.140625 45.601562 1408.199219 48.519531 1415.558594 48.519531 C 1422.921875 48.519531 1429.96875 45.601562 1435.179688 40.398438 C 1440.378906 35.191406 1443.300781 28.140625 1443.300781 20.78125 C 1443.300781 13.429688 1440.378906 6.371094 1435.179688 1.160156 C 1434.769531 0.761719 1434.351562 0.371094 1433.921875 0 Z M 1397.199219 0 "/>
<path fill-rule="nonzero" fill="rgb(36.863708%, 50.584412%, 67.381287%)" fill-opacity="1" d="M 1462.988281 0 C 1462.558594 0.371094 1462.140625 0.761719 1461.730469 1.160156 C 1456.53125 6.371094 1453.609375 13.429688 1453.609375 20.78125 C 1453.609375 28.140625 1456.53125 35.191406 1461.730469 40.398438 C 1466.929688 45.601562 1473.988281 48.519531 1481.351562 48.519531 C 1488.710938 48.519531 1495.769531 45.601562 1500.96875 40.398438 C 1506.171875 35.191406 1509.089844 28.140625 1509.089844 20.78125 C 1509.089844 13.429688 1506.171875 6.371094 1500.96875 1.160156 C 1500.558594 0.761719 1500.140625 0.371094 1499.710938 0 Z M 1462.988281 0 "/>
<path fill-rule="nonzero" fill="rgb(70.506287%, 55.664062%, 67.771912%)" fill-opacity="1" d="M 1368.839844 154.101562 C 1366.890625 154.101562 1364.941406 154.851562 1363.441406 156.339844 L 1347.460938 172.320312 C 1344.46875 175.308594 1344.46875 180.121094 1347.460938 183.109375 C 1350.449219 186.101562 1355.269531 186.101562 1358.25 183.109375 L 1374.230469 167.128906 C 1377.21875 164.140625 1377.21875 159.328125 1374.230469 156.339844 C 1372.738281 154.851562 1370.789062 154.101562 1368.839844 154.101562 Z M 1368.839844 154.101562 "/>
<path fill-rule="nonzero" fill="rgb(70.506287%, 55.664062%, 67.771912%)" fill-opacity="1" d="M 1407.46875 115.46875 C 1405.519531 115.46875 1403.570312 116.210938 1402.070312 117.710938 L 1386.089844 133.691406 C 1383.109375 136.679688 1383.109375 141.488281 1386.089844 144.480469 C 1389.078125 147.46875 1393.890625 147.46875 1396.890625 144.480469 L 1412.859375 128.5 C 1415.851562 125.511719 1415.851562 120.699219 1412.859375 117.710938 C 1411.371094 116.210938 1409.421875 115.46875 1407.46875 115.46875 Z M 1407.46875 115.46875 "/>
<path fill-rule="nonzero" fill="rgb(84.764099%, 87.109375%, 91.40625%)" fill-opacity="1" d="M 1439.441406 456.21875 C 1434.210938 456.21875 1428.988281 458.21875 1424.988281 462.21875 L 1396.699219 490.515625 L 1384.199219 478.015625 C 1382.789062 476.609375 1380.53125 476.609375 1379.121094 478.015625 L 1316.730469 540.40625 C 1315.320312 541.8125 1315.320312 544.078125 1316.730469 545.484375 L 1329.230469 557.984375 L 1165.730469 721.488281 L 1153.230469 708.988281 C 1151.820312 707.582031 1149.558594 707.582031 1148.148438 708.988281 L 1085.761719 771.378906 C 1084.351562 772.785156 1084.351562 775.050781 1085.761719 776.457031 L 1098.261719 788.957031 L 1069.960938 817.25 C 1061.960938 825.253906 1061.960938 838.136719 1069.960938 846.140625 L 1212.210938 988.386719 C 1220.210938 996.390625 1233.101562 996.390625 1241.101562 988.386719 L 1596.128906 633.359375 C 1604.128906 625.355469 1604.128906 612.472656 1596.128906 604.46875 L 1453.878906 462.21875 C 1449.878906 458.21875 1444.660156 456.21875 1439.441406 456.21875 Z M 1439.441406 456.21875 "/>
<path fill-rule="nonzero" fill="rgb(29.80957%, 33.714294%, 41.575623%)" fill-opacity="1" d="M 1184.738281 771.03125 C 1183.230469 771.03125 1181.710938 771.613281 1180.550781 772.777344 L 1149.699219 803.625 C 1147.378906 805.945312 1147.378906 809.6875 1149.699219 812.011719 L 1178.410156 840.710938 L 1149.699219 869.414062 C 1147.378906 871.738281 1147.378906 875.476562 1149.699219 877.800781 L 1180.550781 908.648438 C 1182.878906 910.972656 1186.609375 910.972656 1188.941406 908.648438 L 1217.640625 879.945312 L 1246.339844 908.648438 C 1248.660156 910.972656 1252.398438 910.972656 1254.730469 908.648438 L 1285.578125 877.796875 C 1287.898438 875.476562 1287.898438 871.738281 1285.578125 869.414062 L 1256.878906 840.710938 L 1285.570312 812.011719 C 1287.898438 809.6875 1287.898438 805.945312 1285.570312 803.625 L 1254.730469 772.777344 C 1252.398438 770.453125 1248.660156 770.453125 1246.339844 772.777344 L 1217.640625 801.476562 L 1188.941406 772.777344 C 1187.769531 771.613281 1186.261719 771.03125 1184.738281 771.03125 Z M 1184.738281 771.03125 "/>
<path fill-rule="nonzero" fill="rgb(63.867188%, 74.414062%, 54.881287%)" fill-opacity="1" d="M 1414.519531 549.277344 C 1407.53125 549.539062 1400.890625 552.4375 1395.941406 557.386719 C 1390.738281 562.585938 1387.820312 569.644531 1387.820312 577.003906 C 1387.820312 584.359375 1390.738281 591.417969 1395.941406 596.621094 C 1401.140625 601.820312 1408.199219 604.746094 1415.558594 604.746094 C 1422.921875 604.746094 1429.96875 601.820312 1435.179688 596.621094 C 1440.378906 591.417969 1443.300781 584.359375 1443.300781 577.003906 C 1443.300781 569.644531 1440.378906 562.585938 1435.179688 557.386719 C 1429.71875 551.925781 1422.230469 548.988281 1414.519531 549.277344 Z M 1414.519531 549.277344 "/>
<path fill-rule="nonzero" fill="rgb(74.804688%, 38.035583%, 41.575623%)" fill-opacity="1" d="M 1480.308594 549.277344 C 1473.320312 549.539062 1466.679688 552.4375 1461.730469 557.386719 C 1450.898438 568.21875 1450.898438 585.785156 1461.730469 596.617188 C 1466.929688 601.820312 1473.988281 604.742188 1481.351562 604.742188 C 1488.710938 604.742188 1495.769531 601.820312 1500.96875 596.617188 C 1511.800781 585.785156 1511.800781 568.21875 1500.96875 557.386719 C 1495.511719 551.925781 1488.019531 548.988281 1480.308594 549.277344 Z M 1480.308594 549.277344 "/>
<path fill-rule="nonzero" fill="rgb(81.639099%, 52.929688%, 43.920898%)" fill-opacity="1" d="M 1414.519531 615.070312 C 1407.53125 615.332031 1400.890625 618.226562 1395.941406 623.175781 C 1390.738281 628.375 1387.820312 635.433594 1387.820312 642.792969 C 1387.820312 650.148438 1390.738281 657.207031 1395.941406 662.410156 C 1401.140625 667.609375 1408.199219 670.535156 1415.558594 670.535156 C 1422.921875 670.535156 1429.96875 667.609375 1435.179688 662.410156 C 1440.378906 657.207031 1443.300781 650.148438 1443.300781 642.792969 C 1443.300781 635.433594 1440.378906 628.375 1435.179688 623.175781 C 1429.71875 617.71875 1422.230469 614.78125 1414.519531 615.070312 Z M 1414.519531 615.070312 "/>
<path fill-rule="nonzero" fill="rgb(36.863708%, 50.584412%, 67.381287%)" fill-opacity="1" d="M 1480.308594 615.066406 C 1473.320312 615.328125 1466.679688 618.226562 1461.730469 623.175781 C 1456.53125 628.375 1453.609375 635.433594 1453.609375 642.792969 C 1453.609375 650.148438 1456.53125 657.207031 1461.730469 662.410156 C 1466.929688 667.609375 1473.988281 670.535156 1481.351562 670.535156 C 1488.710938 670.535156 1495.769531 667.609375 1500.96875 662.410156 C 1506.171875 657.207031 1509.089844 650.148438 1509.089844 642.792969 C 1509.089844 635.433594 1506.171875 628.375 1500.96875 623.175781 C 1495.511719 617.714844 1488.019531 614.777344 1480.308594 615.066406 Z M 1480.308594 615.066406 "/>
<path fill-rule="nonzero" fill="rgb(70.506287%, 55.664062%, 67.771912%)" fill-opacity="1" d="M 1368.839844 776.109375 C 1366.890625 776.109375 1364.941406 776.855469 1363.441406 778.351562 L 1347.460938 794.332031 C 1344.46875 797.320312 1344.46875 802.132812 1347.460938 805.121094 C 1350.449219 808.113281 1355.269531 808.113281 1358.25 805.121094 L 1374.230469 789.140625 C 1377.21875 786.152344 1377.21875 781.339844 1374.230469 778.351562 C 1372.738281 776.855469 1370.789062 776.109375 1368.839844 776.109375 Z M 1368.839844 776.109375 "/>
<path fill-rule="nonzero" fill="rgb(70.506287%, 55.664062%, 67.771912%)" fill-opacity="1" d="M 1407.46875 737.480469 C 1405.519531 737.480469 1403.570312 738.226562 1402.070312 739.71875 L 1386.089844 755.699219 C 1383.109375 758.6875 1383.109375 763.5 1386.089844 766.488281 C 1389.078125 769.480469 1393.890625 769.480469 1396.890625 766.488281 L 1412.859375 750.511719 C 1415.851562 747.523438 1415.851562 742.707031 1412.859375 739.71875 C 1411.371094 738.226562 1409.421875 737.480469 1407.46875 737.480469 Z M 1407.46875 737.480469 "/>
<path fill-rule="nonzero" fill="rgb(84.764099%, 87.109375%, 91.40625%)" fill-opacity="1" d="M 1439.441406 1078.230469 C 1434.210938 1078.230469 1428.988281 1080.230469 1424.988281 1084.230469 L 1396.699219 1112.527344 L 1384.199219 1100.027344 C 1382.789062 1098.621094 1380.53125 1098.621094 1379.121094 1100.027344 L 1316.730469 1162.417969 C 1315.320312 1163.824219 1315.320312 1166.085938 1316.730469 1167.492188 L 1329.230469 1179.992188 L 1165.730469 1343.496094 L 1153.230469 1331 C 1151.820312 1329.589844 1149.558594 1329.589844 1148.148438 1331 L 1085.761719 1393.390625 C 1084.351562 1394.796875 1084.351562 1397.0625 1085.761719 1398.46875 L 1098.261719 1410.964844 L 1069.960938 1439.257812 C 1063.589844 1445.628906 1062.308594 1455.089844 1066.078125 1462.722656 L 1388.78125 1462.722656 L 1596.128906 1255.367188 C 1604.128906 1247.367188 1604.128906 1234.480469 1596.128906 1226.476562 L 1453.878906 1084.230469 C 1449.878906 1080.230469 1444.660156 1078.230469 1439.441406 1078.230469 Z M 1439.441406 1078.230469 "/>
<path fill-rule="nonzero" fill="rgb(29.80957%, 33.714294%, 41.575623%)" fill-opacity="1" d="M 1184.738281 1393.042969 C 1183.230469 1393.042969 1181.710938 1393.625 1180.550781 1394.785156 L 1149.699219 1425.632812 C 1147.378906 1427.957031 1147.378906 1431.695312 1149.699219 1434.019531 L 1178.410156 1462.722656 L 1256.878906 1462.722656 L 1285.570312 1434.019531 C 1287.898438 1431.695312 1287.898438 1427.957031 1285.570312 1425.632812 L 1254.730469 1394.785156 C 1252.398438 1392.460938 1248.660156 1392.460938 1246.339844 1394.785156 L 1217.640625 1423.488281 L 1188.941406 1394.785156 C 1187.769531 1393.625 1186.261719 1393.042969 1184.738281 1393.042969 Z M 1184.738281 1393.042969 "/>
<path fill-rule="nonzero" fill="rgb(63.867188%, 74.414062%, 54.881287%)" fill-opacity="1" d="M 1414.519531 1171.289062 C 1407.53125 1171.550781 1400.890625 1174.445312 1395.941406 1179.394531 C 1390.738281 1184.597656 1387.820312 1191.652344 1387.820312 1199.011719 C 1387.820312 1206.367188 1390.738281 1213.425781 1395.941406 1218.628906 C 1401.140625 1223.832031 1408.199219 1226.753906 1415.558594 1226.753906 C 1422.921875 1226.753906 1429.96875 1223.832031 1435.179688 1218.628906 C 1440.378906 1213.425781 1443.300781 1206.367188 1443.300781 1199.011719 C 1443.300781 1191.652344 1440.378906 1184.597656 1435.179688 1179.394531 C 1429.71875 1173.9375 1422.230469 1171 1414.519531 1171.289062 Z M 1414.519531 1171.289062 "/>
<path fill-rule="nonzero" fill="rgb(74.804688%, 38.035583%, 41.575623%)" fill-opacity="1" d="M 1480.308594 1171.289062 C 1473.320312 1171.550781 1466.679688 1174.445312 1461.730469 1179.394531 C 1456.53125 1184.597656 1453.609375 1191.652344 1453.609375 1199.011719 C 1453.609375 1206.367188 1456.53125 1213.425781 1461.730469 1218.628906 C 1466.929688 1223.832031 1473.988281 1226.753906 1481.351562 1226.753906 C 1488.710938 1226.753906 1495.769531 1223.832031 1500.96875 1218.628906 C 1506.171875 1213.425781 1509.089844 1206.367188 1509.089844 1199.011719 C 1509.089844 1191.652344 1506.171875 1184.597656 1500.96875 1179.394531 C 1495.511719 1173.9375 1488.019531 1171 1480.308594 1171.289062 Z M 1480.308594 1171.289062 "/>
<path fill-rule="nonzero" fill="rgb(81.639099%, 52.929688%, 43.920898%)" fill-opacity="1" d="M 1414.519531 1237.078125 C 1407.53125 1237.339844 1400.890625 1240.234375 1395.941406 1245.183594 C 1385.109375 1256.019531 1385.109375 1273.582031 1395.941406 1284.417969 C 1401.140625 1289.621094 1408.199219 1292.542969 1415.558594 1292.542969 C 1422.921875 1292.542969 1429.96875 1289.621094 1435.179688 1284.417969 C 1446.011719 1273.582031 1446.011719 1256.019531 1435.179688 1245.183594 C 1429.71875 1239.726562 1422.230469 1236.789062 1414.519531 1237.078125 Z M 1414.519531 1237.078125 "/>
<path fill-rule="nonzero" fill="rgb(36.863708%, 50.584412%, 67.381287%)" fill-opacity="1" d="M 1480.308594 1237.078125 C 1473.320312 1237.339844 1466.679688 1240.234375 1461.730469 1245.183594 C 1450.898438 1256.019531 1450.898438 1273.582031 1461.730469 1284.417969 C 1466.929688 1289.621094 1473.988281 1292.542969 1481.351562 1292.542969 C 1488.710938 1292.542969 1495.769531 1289.621094 1500.96875 1284.417969 C 1511.800781 1273.582031 1511.800781 1256.019531 1500.96875 1245.183594 C 1495.511719 1239.726562 1488.019531 1236.789062 1480.308594 1237.078125 Z M 1480.308594 1237.078125 "/>
<path fill-rule="nonzero" fill="rgb(70.506287%, 55.664062%, 67.771912%)" fill-opacity="1" d="M 1368.839844 1398.117188 C 1366.890625 1398.117188 1364.941406 1398.867188 1363.441406 1400.359375 L 1347.460938 1416.339844 C 1344.46875 1419.328125 1344.46875 1424.140625 1347.460938 1427.132812 C 1350.449219 1430.121094 1355.269531 1430.121094 1358.25 1427.132812 L 1374.230469 1411.152344 C 1377.21875 1408.164062 1377.21875 1403.351562 1374.230469 1400.359375 C 1372.738281 1398.867188 1370.789062 1398.117188 1368.839844 1398.117188 Z M 1368.839844 1398.117188 "/>
<path fill-rule="nonzero" fill="rgb(70.506287%, 55.664062%, 67.771912%)" fill-opacity="1" d="M 1407.46875 1359.488281 C 1405.519531 1359.488281 1403.570312 1360.234375 1402.070312 1361.730469 L 1386.089844 1377.707031 C 1383.109375 1380.695312 1383.109375 1385.511719 1386.089844 1388.5 C 1389.078125 1391.488281 1393.890625 1391.488281 1396.890625 1388.5 L 1412.859375 1372.519531 C 1415.851562 1369.53125 1415.851562 1364.71875 1412.859375 1361.730469 C 1411.371094 1360.234375 1409.421875 1359.488281 1407.46875 1359.488281 Z M 1407.46875 1359.488281 "/>
<path fill-rule="nonzero" fill="rgb(84.764099%, 87.109375%, 91.40625%)" fill-opacity="1" d="M 1931.730469 0 L 1832.25 99.480469 L 1819.75 86.980469 C 1818.339844 85.570312 1816.078125 85.570312 1814.671875 86.980469 L 1752.28125 149.371094 C 1750.878906 150.78125 1750.878906 153.039062 1752.28125 154.449219 L 1764.78125 166.941406 L 1736.488281 195.238281 C 1728.480469 203.238281 1728.480469 216.128906 1736.488281 224.128906 L 1878.730469 366.378906 C 1886.738281 374.378906 1899.621094 374.378906 1907.628906 366.378906 L 2262.648438 11.351562 C 2265.859375 8.140625 2267.761719 4.148438 2268.390625 0 Z M 1931.730469 0 "/>
<path fill-rule="nonzero" fill="rgb(29.80957%, 33.714294%, 41.575623%)" fill-opacity="1" d="M 1851.269531 149.019531 C 1849.75 149.019531 1848.230469 149.601562 1847.070312 150.769531 L 1816.230469 181.609375 C 1813.898438 183.941406 1813.898438 187.679688 1816.230469 190 L 1844.929688 218.699219 L 1816.230469 247.410156 C 1813.898438 249.730469 1813.898438 253.46875 1816.230469 255.789062 L 1847.070312 286.640625 C 1849.398438 288.960938 1853.140625 288.960938 1855.460938 286.640625 L 1884.160156 257.941406 L 1912.859375 286.640625 C 1915.191406 288.960938 1918.929688 288.960938 1921.25 286.640625 L 1952.101562 255.789062 C 1954.421875 253.46875 1954.421875 249.730469 1952.101562 247.410156 L 1923.398438 218.699219 L 1952.101562 190 C 1954.421875 187.679688 1954.421875 183.941406 1952.101562 181.609375 L 1921.25 150.769531 C 1918.929688 148.441406 1915.191406 148.441406 1912.859375 150.769531 L 1884.160156 179.46875 L 1855.460938 150.769531 C 1854.300781 149.601562 1852.789062 149.019531 1851.269531 149.019531 Z M 1851.269531 149.019531 "/>
<path fill-rule="nonzero" fill="rgb(81.639099%, 52.929688%, 43.920898%)" fill-opacity="1" d="M 2063.71875 0 C 2063.289062 0.371094 2062.871094 0.761719 2062.46875 1.160156 C 2057.261719 6.371094 2054.339844 13.429688 2054.339844 20.78125 C 2054.339844 28.140625 2057.261719 35.191406 2062.46875 40.398438 C 2067.671875 45.601562 2074.71875 48.519531 2082.078125 48.519531 C 2089.441406 48.519531 2096.5 45.601562 2101.699219 40.398438 C 2106.898438 35.191406 2109.820312 28.140625 2109.820312 20.78125 C 2109.820312 13.429688 2106.898438 6.371094 2101.699219 1.160156 C 2101.289062 0.761719 2100.878906 0.371094 2100.449219 0 Z M 2063.71875 0 "/>
<path fill-rule="nonzero" fill="rgb(36.863708%, 50.584412%, 67.381287%)" fill-opacity="1" d="M 2129.511719 0 C 2129.078125 0.371094 2128.660156 0.761719 2128.25 1.160156 C 2123.050781 6.371094 2120.128906 13.429688 2120.128906 20.78125 C 2120.128906 28.140625 2123.050781 35.191406 2128.25 40.398438 C 2133.460938 45.601562 2140.519531 48.519531 2147.871094 48.519531 C 2155.230469 48.519531 2162.289062 45.601562 2167.488281 40.398438 C 2172.691406 35.191406 2175.621094 28.140625 2175.621094 20.78125 C 2175.621094 13.429688 2172.691406 6.371094 2167.488281 1.160156 C 2167.078125 0.761719 2166.660156 0.371094 2166.230469 0 Z M 2129.511719 0 "/>
<path fill-rule="nonzero" fill="rgb(70.506287%, 55.664062%, 67.771912%)" fill-opacity="1" d="M 2035.359375 154.101562 C 2033.410156 154.101562 2031.460938 154.851562 2029.96875 156.339844 L 2013.980469 172.320312 C 2011 175.308594 2011 180.121094 2013.980469 183.109375 C 2016.980469 186.101562 2021.789062 186.101562 2024.78125 183.109375 L 2040.761719 167.128906 C 2043.75 164.140625 2043.75 159.328125 2040.761719 156.339844 C 2039.261719 154.851562 2037.308594 154.101562 2035.359375 154.101562 Z M 2035.359375 154.101562 "/>
<path fill-rule="nonzero" fill="rgb(70.506287%, 55.664062%, 67.771912%)" fill-opacity="1" d="M 2073.988281 115.46875 C 2072.039062 115.46875 2070.089844 116.210938 2068.589844 117.710938 L 2052.621094 133.691406 C 2049.628906 136.679688 2049.628906 141.488281 2052.621094 144.480469 C 2055.609375 147.46875 2060.421875 147.46875 2063.410156 144.480469 L 2079.390625 128.5 C 2082.378906 125.511719 2082.378906 120.699219 2079.390625 117.710938 C 2077.890625 116.210938 2075.941406 115.46875 2073.988281 115.46875 Z M 2073.988281 115.46875 "/>
<path fill-rule="nonzero" fill="rgb(84.764099%, 87.109375%, 91.40625%)" fill-opacity="1" d="M 2105.960938 456.21875 C 2100.738281 456.21875 2095.519531 458.21875 2091.519531 462.21875 L 2063.21875 490.515625 L 2050.71875 478.015625 C 2049.320312 476.609375 2047.050781 476.609375 2045.640625 478.015625 L 1983.25 540.40625 C 1981.851562 541.8125 1981.851562 544.078125 1983.25 545.484375 L 1995.75 557.984375 L 1832.25 721.488281 L 1819.75 708.988281 C 1818.339844 707.582031 1816.078125 707.582031 1814.671875 708.988281 L 1752.28125 771.378906 C 1750.878906 772.785156 1750.878906 775.050781 1752.28125 776.457031 L 1764.78125 788.957031 L 1736.488281 817.25 C 1728.480469 825.253906 1728.480469 838.136719 1736.488281 846.140625 L 1878.730469 988.386719 C 1886.738281 996.390625 1899.621094 996.390625 1907.628906 988.386719 L 2262.648438 633.359375 C 2270.660156 625.355469 2270.660156 612.472656 2262.648438 604.46875 L 2120.410156 462.21875 C 2116.410156 458.21875 2111.179688 456.21875 2105.960938 456.21875 Z M 2105.960938 456.21875 "/>
<path fill-rule="nonzero" fill="rgb(29.80957%, 33.714294%, 41.575623%)" fill-opacity="1" d="M 1851.269531 771.03125 C 1849.75 771.03125 1848.230469 771.613281 1847.070312 772.777344 L 1816.230469 803.625 C 1813.898438 805.945312 1813.898438 809.6875 1816.230469 812.011719 L 1844.929688 840.710938 L 1816.230469 869.414062 C 1813.898438 871.738281 1813.898438 875.476562 1816.230469 877.800781 L 1847.070312 908.648438 C 1849.398438 910.972656 1853.140625 910.972656 1855.460938 908.648438 L 1884.160156 879.945312 L 1912.859375 908.648438 C 1915.191406 910.972656 1918.929688 910.972656 1921.25 908.648438 L 1952.101562 877.796875 C 1954.421875 875.476562 1954.421875 871.738281 1952.101562 869.414062 L 1923.398438 840.710938 L 1952.101562 812.011719 C 1954.421875 809.6875 1954.421875 805.945312 1952.101562 803.625 L 1921.25 772.777344 C 1918.929688 770.453125 1915.191406 770.453125 1912.859375 772.777344 L 1884.160156 801.476562 L 1855.460938 772.777344 C 1854.300781 771.613281 1852.789062 771.03125 1851.269531 771.03125 Z M 1851.269531 771.03125 "/>
<path fill-rule="nonzero" fill="rgb(63.867188%, 74.414062%, 54.881287%)" fill-opacity="1" d="M 2081.050781 549.277344 C 2074.050781 549.539062 2067.410156 552.4375 2062.46875 557.386719 C 2051.628906 568.21875 2051.628906 585.785156 2062.46875 596.617188 C 2067.671875 601.820312 2074.71875 604.742188 2082.078125 604.742188 C 2089.441406 604.742188 2096.5 601.820312 2101.699219 596.617188 C 2112.53125 585.785156 2112.53125 568.21875 2101.699219 557.386719 C 2096.238281 551.925781 2088.761719 548.988281 2081.050781 549.277344 Z M 2081.050781 549.277344 "/>
<path fill-rule="nonzero" fill="rgb(74.804688%, 38.035583%, 41.575623%)" fill-opacity="1" d="M 2146.839844 549.277344 C 2139.839844 549.539062 2133.199219 552.4375 2128.25 557.386719 C 2123.050781 562.585938 2120.128906 569.644531 2120.128906 577.003906 C 2120.128906 584.359375 2123.050781 591.417969 2128.25 596.621094 C 2133.460938 601.820312 2140.519531 604.746094 2147.871094 604.746094 C 2155.230469 604.746094 2162.289062 601.820312 2167.488281 596.621094 C 2172.691406 591.417969 2175.621094 584.359375 2175.621094 577.003906 C 2175.621094 569.644531 2172.691406 562.585938 2167.488281 557.386719 C 2162.03125 551.925781 2154.550781 548.988281 2146.839844 549.277344 Z M 2146.839844 549.277344 "/>
<path fill-rule="nonzero" fill="rgb(81.639099%, 52.929688%, 43.920898%)" fill-opacity="1" d="M 2081.050781 615.070312 C 2074.050781 615.332031 2067.410156 618.226562 2062.46875 623.175781 C 2057.261719 628.375 2054.339844 635.433594 2054.339844 642.792969 C 2054.339844 650.148438 2057.261719 657.207031 2062.46875 662.410156 C 2067.671875 667.609375 2074.71875 670.535156 2082.078125 670.535156 C 2089.441406 670.535156 2096.5 667.609375 2101.699219 662.410156 C 2106.898438 657.207031 2109.820312 650.148438 2109.820312 642.792969 C 2109.820312 635.433594 2106.898438 628.375 2101.699219 623.175781 C 2096.238281 617.71875 2088.761719 614.78125 2081.050781 615.070312 Z M 2081.050781 615.070312 "/>
<path fill-rule="nonzero" fill="rgb(36.863708%, 50.584412%, 67.381287%)" fill-opacity="1" d="M 2146.839844 615.070312 C 2139.839844 615.332031 2133.199219 618.226562 2128.25 623.175781 C 2123.050781 628.375 2120.128906 635.433594 2120.128906 642.792969 C 2120.128906 650.148438 2123.050781 657.207031 2128.25 662.410156 C 2133.460938 667.609375 2140.519531 670.535156 2147.871094 670.535156 C 2155.230469 670.535156 2162.289062 667.609375 2167.488281 662.410156 C 2172.691406 657.207031 2175.621094 650.148438 2175.621094 642.792969 C 2175.621094 635.433594 2172.691406 628.375 2167.488281 623.175781 C 2162.03125 617.71875 2154.550781 614.78125 2146.839844 615.070312 Z M 2146.839844 615.070312 "/>
<path fill-rule="nonzero" fill="rgb(70.506287%, 55.664062%, 67.771912%)" fill-opacity="1" d="M 2035.359375 776.109375 C 2033.410156 776.109375 2031.460938 776.855469 2029.96875 778.351562 L 2013.980469 794.332031 C 2011 797.320312 2011 802.132812 2013.980469 805.121094 C 2016.980469 808.113281 2021.789062 808.113281 2024.78125 805.121094 L 2040.761719 789.140625 C 2043.75 786.152344 2043.75 781.339844 2040.761719 778.351562 C 2039.261719 776.855469 2037.308594 776.109375 2035.359375 776.109375 Z M 2035.359375 776.109375 "/>
<path fill-rule="nonzero" fill="rgb(70.506287%, 55.664062%, 67.771912%)" fill-opacity="1" d="M 2073.988281 737.480469 C 2072.039062 737.480469 2070.089844 738.226562 2068.589844 739.71875 L 2052.621094 755.699219 C 2049.628906 758.6875 2049.628906 763.5 2052.621094 766.488281 C 2055.609375 769.480469 2060.421875 769.480469 2063.410156 766.488281 L 2079.390625 750.511719 C 2082.378906 747.523438 2082.378906 742.707031 2079.390625 739.71875 C 2077.890625 738.226562 2075.941406 737.480469 2073.988281 737.480469 Z M 2073.988281 737.480469 "/>
<path fill-rule="nonzero" fill="rgb(84.764099%, 87.109375%, 91.40625%)" fill-opacity="1" d="M 2105.960938 1078.230469 C 2100.738281 1078.230469 2095.519531 1080.230469 2091.519531 1084.230469 L 2063.21875 1112.527344 L 2050.71875 1100.027344 C 2049.320312 1098.621094 2047.050781 1098.621094 2045.640625 1100.027344 L 1983.25 1162.417969 C 1981.851562 1163.824219 1981.851562 1166.085938 1983.25 1167.492188 L 1995.75 1179.992188 L 1832.25 1343.496094 L 1819.75 1331 C 1818.339844 1329.589844 1816.078125 1329.589844 1814.671875 1331 L 1752.28125 1393.390625 C 1750.878906 1394.796875 1750.878906 1397.0625 1752.28125 1398.46875 L 1764.78125 1410.964844 L 1736.488281 1439.257812 C 1730.121094 1445.628906 1728.839844 1455.089844 1732.609375 1462.722656 L 2055.300781 1462.722656 L 2262.648438 1255.367188 C 2270.660156 1247.367188 2270.660156 1234.480469 2262.648438 1226.476562 L 2120.410156 1084.230469 C 2116.410156 1080.230469 2111.179688 1078.230469 2105.960938 1078.230469 Z M 2105.960938 1078.230469 "/>
<path fill-rule="nonzero" fill="rgb(29.80957%, 33.714294%, 41.575623%)" fill-opacity="1" d="M 1851.269531 1393.042969 C 1849.75 1393.042969 1848.230469 1393.625 1847.070312 1394.785156 L 1816.230469 1425.632812 C 1813.898438 1427.957031 1813.898438 1431.695312 1816.230469 1434.019531 L 1844.929688 1462.722656 L 1923.398438 1462.722656 L 1952.101562 1434.019531 C 1954.421875 1431.695312 1954.421875 1427.957031 1952.101562 1425.632812 L 1921.25 1394.785156 C 1918.929688 1392.460938 1915.191406 1392.460938 1912.859375 1394.785156 L 1884.160156 1423.488281 L 1855.460938 1394.785156 C 1854.300781 1393.625 1852.789062 1393.042969 1851.269531 1393.042969 Z M 1851.269531 1393.042969 "/>
<path fill-rule="nonzero" fill="rgb(63.867188%, 74.414062%, 54.881287%)" fill-opacity="1" d="M 2081.050781 1171.289062 C 2074.050781 1171.550781 2067.410156 1174.445312 2062.46875 1179.394531 C 2057.261719 1184.597656 2054.339844 1191.652344 2054.339844 1199.011719 C 2054.339844 1206.367188 2057.261719 1213.425781 2062.46875 1218.628906 C 2067.671875 1223.832031 2074.71875 1226.753906 2082.078125 1226.753906 C 2089.441406 1226.753906 2096.5 1223.832031 2101.699219 1218.628906 C 2106.898438 1213.425781 2109.820312 1206.367188 2109.820312 1199.011719 C 2109.820312 1191.652344 2106.898438 1184.597656 2101.699219 1179.394531 C 2096.238281 1173.9375 2088.761719 1171 2081.050781 1171.289062 Z M 2081.050781 1171.289062 "/>
<path fill-rule="nonzero" fill="rgb(74.804688%, 38.035583%, 41.575623%)" fill-opacity="1" d="M 2146.839844 1171.289062 C 2139.839844 1171.550781 2133.199219 1174.445312 2128.25 1179.394531 C 2123.050781 1184.597656 2120.128906 1191.652344 2120.128906 1199.011719 C 2120.128906 1206.367188 2123.050781 1213.425781 2128.25 1218.628906 C 2133.460938 1223.832031 2140.519531 1226.753906 2147.871094 1226.753906 C 2155.230469 1226.753906 2162.289062 1223.832031 2167.488281 1218.628906 C 2172.691406 1213.425781 2175.621094 1206.367188 2175.621094 1199.011719 C 2175.621094 1191.652344 2172.691406 1184.597656 2167.488281 1179.394531 C 2162.03125 1173.9375 2154.550781 1171 2146.839844 1171.289062 Z M 2146.839844 1171.289062 "/>
<path fill-rule="nonzero" fill="rgb(81.639099%, 52.929688%, 43.920898%)" fill-opacity="1" d="M 2081.050781 1237.078125 C 2074.050781 1237.339844 2067.410156 1240.234375 2062.46875 1245.183594 C 2051.628906 1256.019531 2051.628906 1273.582031 2062.46875 1284.417969 C 2067.671875 1289.621094 2074.71875 1292.542969 2082.078125 1292.542969 C 2089.441406 1292.542969 2096.5 1289.621094 2101.699219 1284.417969 C 2112.53125 1273.582031 2112.53125 1256.019531 2101.699219 1245.183594 C 2096.238281 1239.726562 2088.761719 1236.789062 2081.050781 1237.078125 Z M 2081.050781 1237.078125 "/>
<path fill-rule="nonzero" fill="rgb(36.863708%, 50.584412%, 67.381287%)" fill-opacity="1" d="M 2146.839844 1237.078125 C 2139.839844 1237.339844 2133.199219 1240.234375 2128.25 1245.183594 C 2117.421875 1256.019531 2117.421875 1273.582031 2128.25 1284.417969 C 2133.460938 1289.621094 2140.519531 1292.542969 2147.871094 1292.542969 C 2155.230469 1292.542969 2162.289062 1289.621094 2167.488281 1284.417969 C 2178.320312 1273.582031 2178.320312 1256.019531 2167.488281 1245.183594 C 2162.03125 1239.726562 2154.550781 1236.789062 2146.839844 1237.078125 Z M 2146.839844 1237.078125 "/>
<path fill-rule="nonzero" fill="rgb(70.506287%, 55.664062%, 67.771912%)" fill-opacity="1" d="M 2035.359375 1398.117188 C 2033.410156 1398.117188 2031.460938 1398.867188 2029.96875 1400.359375 L 2013.980469 1416.339844 C 2011 1419.328125 2011 1424.140625 2013.980469 1427.132812 C 2016.980469 1430.121094 2021.789062 1430.121094 2024.78125 1427.132812 L 2040.761719 1411.152344 C 2043.75 1408.164062 2043.75 1403.347656 2040.761719 1400.359375 C 2039.261719 1398.867188 2037.308594 1398.117188 2035.359375 1398.117188 Z M 2035.359375 1398.117188 "/>
<path fill-rule="nonzero" fill="rgb(70.506287%, 55.664062%, 67.771912%)" fill-opacity="1" d="M 2073.988281 1359.488281 C 2072.039062 1359.488281 2070.089844 1360.234375 2068.589844 1361.730469 L 2052.621094 1377.707031 C 2049.628906 1380.695312 2049.628906 1385.511719 2052.621094 1388.5 C 2055.609375 1391.488281 2060.421875 1391.488281 2063.410156 1388.5 L 2079.390625 1372.519531 C 2082.378906 1369.53125 2082.378906 1364.71875 2079.390625 1361.730469 C 2077.890625 1360.234375 2075.941406 1359.488281 2073.988281 1359.488281 Z M 2073.988281 1359.488281 "/>
<path fill-rule="nonzero" fill="rgb(84.764099%, 87.109375%, 91.40625%)" fill-opacity="1" d="M 2598.25 0 L 2498.769531 99.480469 L 2486.269531 86.980469 C 2484.871094 85.570312 2482.601562 85.570312 2481.199219 86.980469 L 2418.808594 149.371094 C 2417.398438 150.78125 2417.398438 153.039062 2418.808594 154.449219 L 2431.308594 166.941406 L 2403.011719 195.238281 C 2395.011719 203.238281 2395.011719 216.128906 2403.011719 224.128906 L 2545.261719 366.378906 C 2553.261719 374.378906 2566.140625 374.378906 2574.148438 366.378906 L 2929.179688 11.351562 C 2932.378906 8.140625 2934.28125 4.148438 2934.921875 0 Z M 2598.25 0 "/>
<path fill-rule="nonzero" fill="rgb(29.80957%, 33.714294%, 41.575623%)" fill-opacity="1" d="M 2517.789062 149.019531 C 2516.28125 149.019531 2514.761719 149.601562 2513.601562 150.769531 L 2482.75 181.609375 C 2480.429688 183.941406 2480.429688 187.679688 2482.75 190 L 2511.449219 218.699219 L 2482.75 247.410156 C 2480.429688 249.730469 2480.429688 253.46875 2482.75 255.789062 L 2513.601562 286.640625 C 2515.921875 288.960938 2519.660156 288.960938 2521.980469 286.640625 L 2550.691406 257.941406 L 2579.390625 286.640625 C 2581.710938 288.960938 2585.449219 288.960938 2587.769531 286.640625 L 2618.621094 255.789062 C 2620.949219 253.46875 2620.949219 249.730469 2618.621094 247.410156 L 2589.921875 218.699219 L 2618.621094 190 C 2620.949219 187.679688 2620.949219 183.941406 2618.621094 181.609375 L 2587.769531 150.769531 C 2585.449219 148.441406 2581.710938 148.441406 2579.390625 150.769531 L 2550.691406 179.46875 L 2521.980469 150.769531 C 2520.820312 149.601562 2519.308594 149.019531 2517.789062 149.019531 Z M 2517.789062 149.019531 "/>
<path fill-rule="nonzero" fill="rgb(81.639099%, 52.929688%, 43.920898%)" fill-opacity="1" d="M 2730.25 0 C 2729.808594 0.371094 2729.390625 0.761719 2728.988281 1.160156 C 2723.789062 6.371094 2720.859375 13.429688 2720.859375 20.78125 C 2720.859375 28.140625 2723.789062 35.191406 2728.988281 40.398438 C 2734.191406 45.601562 2741.25 48.519531 2748.609375 48.519531 C 2755.960938 48.519531 2763.019531 45.601562 2768.21875 40.398438 C 2773.429688 35.191406 2776.351562 28.140625 2776.351562 20.78125 C 2776.351562 13.429688 2773.429688 6.371094 2768.21875 1.160156 C 2767.820312 0.761719 2767.398438 0.371094 2766.96875 0 Z M 2730.25 0 "/>
<path fill-rule="nonzero" fill="rgb(36.863708%, 50.584412%, 67.381287%)" fill-opacity="1" d="M 2796.039062 0 C 2795.601562 0.371094 2795.179688 0.761719 2794.78125 1.160156 C 2789.570312 6.371094 2786.648438 13.429688 2786.648438 20.78125 C 2786.648438 28.140625 2789.570312 35.191406 2794.78125 40.398438 C 2799.980469 45.601562 2807.039062 48.519531 2814.390625 48.519531 C 2821.75 48.519531 2828.808594 45.601562 2834.011719 40.398438 C 2839.21875 35.191406 2842.140625 28.140625 2842.140625 20.78125 C 2842.140625 13.429688 2839.21875 6.371094 2834.011719 1.160156 C 2833.609375 0.761719 2833.191406 0.371094 2832.761719 0 Z M 2796.039062 0 "/>
<path fill-rule="nonzero" fill="rgb(70.506287%, 55.664062%, 67.771912%)" fill-opacity="1" d="M 2701.878906 154.101562 C 2699.929688 154.101562 2697.980469 154.851562 2696.488281 156.339844 L 2680.511719 172.320312 C 2677.519531 175.308594 2677.519531 180.121094 2680.511719 183.109375 C 2683.5 186.101562 2688.308594 186.101562 2691.300781 183.109375 L 2707.28125 167.128906 C 2710.269531 164.140625 2710.269531 159.328125 2707.28125 156.339844 C 2705.789062 154.851562 2703.828125 154.101562 2701.878906 154.101562 Z M 2701.878906 154.101562 "/>
<path fill-rule="nonzero" fill="rgb(70.506287%, 55.664062%, 67.771912%)" fill-opacity="1" d="M 2740.519531 115.46875 C 2738.558594 115.46875 2736.609375 116.210938 2735.121094 117.710938 L 2719.140625 133.691406 C 2716.148438 136.679688 2716.148438 141.488281 2719.140625 144.480469 C 2722.128906 147.46875 2726.941406 147.46875 2729.929688 144.480469 L 2745.910156 128.5 C 2748.898438 125.511719 2748.898438 120.699219 2745.910156 117.710938 C 2744.410156 116.210938 2742.46875 115.46875 2740.519531 115.46875 Z M 2740.519531 115.46875 "/>
<path fill-rule="nonzero" fill="rgb(84.764099%, 87.109375%, 91.40625%)" fill-opacity="1" d="M 2772.480469 456.21875 C 2767.261719 456.21875 2762.039062 458.21875 2758.039062 462.21875 L 2729.75 490.515625 L 2717.25 478.015625 C 2715.839844 476.609375 2713.570312 476.609375 2712.171875 478.015625 L 2649.78125 540.40625 C 2648.371094 541.8125 2648.371094 544.078125 2649.78125 545.484375 L 2662.28125 557.984375 L 2498.769531 721.488281 L 2486.269531 708.988281 C 2484.871094 707.582031 2482.601562 707.582031 2481.199219 708.988281 L 2418.808594 771.378906 C 2417.398438 772.785156 2417.398438 775.050781 2418.808594 776.457031 L 2431.308594 788.957031 L 2403.011719 817.25 C 2395.011719 825.253906 2395.011719 838.136719 2403.011719 846.140625 L 2545.261719 988.386719 C 2553.261719 996.390625 2566.140625 996.390625 2574.148438 988.386719 L 2929.179688 633.359375 C 2937.179688 625.355469 2937.179688 612.472656 2929.179688 604.46875 L 2786.929688 462.21875 C 2782.929688 458.21875 2777.710938 456.21875 2772.480469 456.21875 Z M 2772.480469 456.21875 "/>
<path fill-rule="nonzero" fill="rgb(29.80957%, 33.714294%, 41.575623%)" fill-opacity="1" d="M 2517.789062 771.03125 C 2516.28125 771.03125 2514.761719 771.613281 2513.601562 772.777344 L 2482.75 803.625 C 2480.429688 805.945312 2480.429688 809.6875 2482.75 812.011719 L 2511.449219 840.710938 L 2482.75 869.414062 C 2480.429688 871.738281 2480.429688 875.476562 2482.75 877.800781 L 2513.601562 908.648438 C 2515.921875 910.972656 2519.660156 910.972656 2521.980469 908.648438 L 2550.691406 879.945312 L 2579.390625 908.648438 C 2581.710938 910.972656 2585.449219 910.972656 2587.769531 908.648438 L 2618.621094 877.796875 C 2620.949219 875.476562 2620.949219 871.738281 2618.621094 869.414062 L 2589.921875 840.710938 L 2618.621094 812.011719 C 2620.949219 809.6875 2620.949219 805.945312 2618.621094 803.625 L 2587.769531 772.777344 C 2585.449219 770.453125 2581.710938 770.453125 2579.390625 772.777344 L 2550.691406 801.476562 L 2521.980469 772.777344 C 2520.820312 771.613281 2519.308594 771.03125 2517.789062 771.03125 Z M 2517.789062 771.03125 "/>
<path fill-rule="nonzero" fill="rgb(63.867188%, 74.414062%, 54.881287%)" fill-opacity="1" d="M 2747.570312 549.277344 C 2740.570312 549.539062 2733.941406 552.4375 2728.988281 557.386719 C 2723.789062 562.585938 2720.859375 569.644531 2720.859375 577.003906 C 2720.859375 584.359375 2723.789062 591.417969 2728.988281 596.621094 C 2739.820312 607.453125 2757.390625 607.453125 2768.21875 596.621094 C 2773.429688 591.417969 2776.351562 584.359375 2776.351562 577.003906 C 2776.351562 569.644531 2773.429688 562.585938 2768.21875 557.386719 C 2762.769531 551.925781 2755.28125 548.988281 2747.570312 549.277344 Z M 2747.570312 549.277344 "/>
<path fill-rule="nonzero" fill="rgb(74.804688%, 38.035583%, 41.575623%)" fill-opacity="1" d="M 2813.359375 549.277344 C 2806.359375 549.539062 2799.730469 552.4375 2794.78125 557.386719 C 2783.949219 568.21875 2783.949219 585.785156 2794.78125 596.617188 C 2799.980469 601.820312 2807.039062 604.742188 2814.390625 604.742188 C 2821.75 604.742188 2828.808594 601.820312 2834.011719 596.617188 C 2844.851562 585.785156 2844.851562 568.21875 2834.011719 557.386719 C 2828.558594 551.925781 2821.070312 548.988281 2813.359375 549.277344 Z M 2813.359375 549.277344 "/>
<path fill-rule="nonzero" fill="rgb(81.639099%, 52.929688%, 43.920898%)" fill-opacity="1" d="M 2747.570312 615.070312 C 2740.570312 615.332031 2733.941406 618.226562 2728.988281 623.175781 C 2723.789062 628.375 2720.859375 635.433594 2720.859375 642.792969 C 2720.859375 650.148438 2723.789062 657.207031 2728.988281 662.410156 C 2734.191406 667.609375 2741.25 670.535156 2748.609375 670.535156 C 2755.960938 670.535156 2763.019531 667.609375 2768.21875 662.410156 C 2773.429688 657.207031 2776.351562 650.148438 2776.351562 642.792969 C 2776.351562 635.433594 2773.429688 628.375 2768.21875 623.175781 C 2762.769531 617.71875 2755.28125 614.78125 2747.570312 615.070312 Z M 2747.570312 615.070312 "/>
<path fill-rule="nonzero" fill="rgb(36.863708%, 50.584412%, 67.381287%)" fill-opacity="1" d="M 2813.359375 615.070312 C 2806.359375 615.332031 2799.730469 618.226562 2794.78125 623.175781 C 2789.570312 628.375 2786.648438 635.433594 2786.648438 642.792969 C 2786.648438 650.148438 2789.570312 657.207031 2794.78125 662.410156 C 2799.980469 667.609375 2807.039062 670.535156 2814.390625 670.535156 C 2821.75 670.535156 2828.808594 667.609375 2834.011719 662.410156 C 2839.21875 657.207031 2842.140625 650.148438 2842.140625 642.792969 C 2842.140625 635.433594 2839.21875 628.375 2834.011719 623.175781 C 2828.558594 617.71875 2821.070312 614.78125 2813.359375 615.070312 Z M 2813.359375 615.070312 "/>
<path fill-rule="nonzero" fill="rgb(70.506287%, 55.664062%, 67.771912%)" fill-opacity="1" d="M 2701.878906 776.109375 C 2699.929688 776.109375 2697.980469 776.855469 2696.488281 778.351562 L 2680.511719 794.328125 C 2677.519531 797.316406 2677.519531 802.132812 2680.511719 805.121094 C 2683.5 808.109375 2688.308594 808.109375 2691.300781 805.121094 L 2707.28125 789.140625 C 2710.269531 786.152344 2710.269531 781.339844 2707.28125 778.351562 C 2705.789062 776.855469 2703.828125 776.109375 2701.878906 776.109375 Z M 2701.878906 776.109375 "/>
<path fill-rule="nonzero" fill="rgb(70.506287%, 55.664062%, 67.771912%)" fill-opacity="1" d="M 2740.519531 737.480469 C 2738.558594 737.480469 2736.609375 738.226562 2735.121094 739.71875 L 2719.140625 755.699219 C 2716.148438 758.6875 2716.148438 763.5 2719.140625 766.488281 C 2722.128906 769.480469 2726.941406 769.480469 2729.929688 766.488281 L 2745.910156 750.511719 C 2748.898438 747.523438 2748.898438 742.707031 2745.910156 739.71875 C 2744.410156 738.226562 2742.46875 737.480469 2740.519531 737.480469 Z M 2740.519531 737.480469 "/>
<path fill-rule="nonzero" fill="rgb(84.764099%, 87.109375%, 91.40625%)" fill-opacity="1" d="M 2772.480469 1078.230469 C 2767.261719 1078.230469 2762.039062 1080.230469 2758.039062 1084.230469 L 2729.75 1112.527344 L 2717.25 1100.027344 C 2715.839844 1098.621094 2713.570312 1098.621094 2712.171875 1100.027344 L 2649.78125 1162.417969 C 2648.371094 1163.824219 2648.371094 1166.085938 2649.78125 1167.492188 L 2662.28125 1179.992188 L 2498.769531 1343.496094 L 2486.269531 1331 C 2484.871094 1329.589844 2482.601562 1329.589844 2481.199219 1331 L 2418.808594 1393.390625 C 2417.398438 1394.796875 2417.398438 1397.0625 2418.808594 1398.46875 L 2431.308594 1410.964844 L 2403.011719 1439.257812 C 2396.640625 1445.628906 2395.359375 1455.089844 2399.128906 1462.722656 L 2721.820312 1462.722656 L 2929.179688 1255.367188 C 2937.179688 1247.367188 2937.179688 1234.480469 2929.179688 1226.476562 L 2786.929688 1084.230469 C 2782.929688 1080.230469 2777.710938 1078.230469 2772.480469 1078.230469 Z M 2772.480469 1078.230469 "/>
<path fill-rule="nonzero" fill="rgb(29.80957%, 33.714294%, 41.575623%)" fill-opacity="1" d="M 2517.789062 1393.042969 C 2516.28125 1393.042969 2514.761719 1393.625 2513.601562 1394.785156 L 2482.75 1425.632812 C 2480.429688 1427.957031 2480.429688 1431.695312 2482.75 1434.019531 L 2511.449219 1462.722656 L 2589.921875 1462.722656 L 2618.621094 1434.019531 C 2620.949219 1431.695312 2620.949219 1427.957031 2618.621094 1425.632812 L 2587.769531 1394.785156 C 2585.449219 1392.460938 2581.710938 1392.460938 2579.390625 1394.785156 L 2550.691406 1423.488281 L 2521.980469 1394.785156 C 2520.820312 1393.625 2519.308594 1393.042969 2517.789062 1393.042969 Z M 2517.789062 1393.042969 "/>
<path fill-rule="nonzero" fill="rgb(63.867188%, 74.414062%, 54.881287%)" fill-opacity="1" d="M 2747.570312 1171.289062 C 2740.570312 1171.550781 2733.941406 1174.445312 2728.988281 1179.394531 C 2723.789062 1184.597656 2720.859375 1191.652344 2720.859375 1199.011719 C 2720.859375 1206.367188 2723.789062 1213.425781 2728.988281 1218.628906 C 2734.191406 1223.832031 2741.25 1226.753906 2748.609375 1226.753906 C 2755.960938 1226.753906 2763.019531 1223.832031 2768.21875 1218.628906 C 2773.429688 1213.425781 2776.351562 1206.367188 2776.351562 1199.011719 C 2776.351562 1191.652344 2773.429688 1184.597656 2768.21875 1179.394531 C 2762.769531 1173.9375 2755.28125 1171 2747.570312 1171.289062 Z M 2747.570312 1171.289062 "/>
<path fill-rule="nonzero" fill="rgb(74.804688%, 38.035583%, 41.575623%)" fill-opacity="1" d="M 2813.359375 1171.289062 C 2806.359375 1171.550781 2799.730469 1174.445312 2794.78125 1179.394531 C 2789.570312 1184.597656 2786.648438 1191.652344 2786.648438 1199.011719 C 2786.648438 1206.367188 2789.570312 1213.425781 2794.78125 1218.628906 C 2799.980469 1223.832031 2807.039062 1226.753906 2814.390625 1226.753906 C 2821.75 1226.753906 2828.808594 1223.832031 2834.011719 1218.628906 C 2839.21875 1213.425781 2842.140625 1206.367188 2842.140625 1199.011719 C 2842.140625 1191.652344 2839.21875 1184.597656 2834.011719 1179.394531 C 2828.558594 1173.9375 2821.070312 1171 2813.359375 1171.289062 Z M 2813.359375 1171.289062 "/>
<path fill-rule="nonzero" fill="rgb(81.639099%, 52.929688%, 43.920898%)" fill-opacity="1" d="M 2747.570312 1237.078125 C 2740.570312 1237.339844 2733.941406 1240.234375 2728.988281 1245.183594 C 2718.160156 1256.019531 2718.160156 1273.582031 2728.988281 1284.417969 C 2734.191406 1289.621094 2741.25 1292.542969 2748.609375 1292.542969 C 2755.960938 1292.542969 2763.019531 1289.621094 2768.21875 1284.417969 C 2779.058594 1273.582031 2779.058594 1256.019531 2768.21875 1245.183594 C 2762.769531 1239.726562 2755.28125 1236.789062 2747.570312 1237.078125 Z M 2747.570312 1237.078125 "/>
<path fill-rule="nonzero" fill="rgb(36.863708%, 50.584412%, 67.381287%)" fill-opacity="1" d="M 2813.359375 1237.078125 C 2806.359375 1237.339844 2799.730469 1240.234375 2794.78125 1245.183594 C 2783.949219 1256.019531 2783.949219 1273.582031 2794.78125 1284.417969 C 2799.980469 1289.621094 2807.039062 1292.542969 2814.390625 1292.542969 C 2821.75 1292.542969 2828.808594 1289.621094 2834.011719 1284.417969 C 2844.851562 1273.582031 2844.851562 1256.019531 2834.011719 1245.183594 C 2828.558594 1239.726562 2821.070312 1236.789062 2813.359375 1237.078125 Z M 2813.359375 1237.078125 "/>
<path fill-rule="nonzero" fill="rgb(70.506287%, 55.664062%, 67.771912%)" fill-opacity="1" d="M 2701.878906 1398.117188 C 2699.929688 1398.117188 2697.980469 1398.867188 2696.488281 1400.359375 L 2680.511719 1416.339844 C 2677.519531 1419.328125 2677.519531 1424.140625 2680.511719 1427.132812 C 2683.5 1430.121094 2688.308594 1430.121094 2691.300781 1427.132812 L 2707.28125 1411.152344 C 2710.269531 1408.164062 2710.269531 1403.351562 2707.28125 1400.359375 C 2705.789062 1398.867188 2703.828125 1398.117188 2701.878906 1398.117188 Z M 2701.878906 1398.117188 "/>
<path fill-rule="nonzero" fill="rgb(70.506287%, 55.664062%, 67.771912%)" fill-opacity="1" d="M 2740.519531 1359.488281 C 2738.558594 1359.488281 2736.609375 1360.234375 2735.121094 1361.730469 L 2719.140625 1377.707031 C 2716.148438 1380.695312 2716.148438 1385.511719 2719.140625 1388.5 C 2722.128906 1391.488281 2726.941406 1391.488281 2729.929688 1388.5 L 2745.910156 1372.519531 C 2748.898438 1369.53125 2748.898438 1364.71875 2745.910156 1361.730469 C 2744.410156 1360.234375 2742.46875 1359.488281 2740.519531 1359.488281 Z M 2740.519531 1359.488281 "/>
<path fill-rule="nonzero" fill="rgb(84.764099%, 87.109375%, 91.40625%)" fill-opacity="1" d="M 3264.769531 0 L 3165.300781 99.480469 L 3152.800781 86.980469 C 3151.390625 85.570312 3149.128906 85.570312 3147.71875 86.980469 L 3085.328125 149.371094 C 3083.921875 150.78125 3083.921875 153.039062 3085.328125 154.449219 L 3097.828125 166.941406 L 3069.53125 195.238281 C 3061.53125 203.238281 3061.53125 216.128906 3069.53125 224.128906 L 3211.78125 366.378906 C 3219.78125 374.378906 3232.671875 374.378906 3240.671875 366.378906 L 3595.699219 11.351562 C 3598.910156 8.140625 3600.808594 4.148438 3601.441406 0 Z M 3264.769531 0 "/>
<path fill-rule="nonzero" fill="rgb(29.80957%, 33.714294%, 41.575623%)" fill-opacity="1" d="M 3184.308594 149.019531 C 3182.800781 149.019531 3181.28125 149.601562 3180.121094 150.769531 L 3149.269531 181.609375 C 3146.949219 183.941406 3146.949219 187.679688 3149.269531 190 L 3177.96875 218.699219 L 3149.269531 247.410156 C 3146.949219 249.730469 3146.949219 253.46875 3149.269531 255.789062 L 3180.121094 286.640625 C 3182.441406 288.960938 3186.179688 288.960938 3188.5 286.640625 L 3217.210938 257.941406 L 3245.910156 286.640625 C 3248.230469 288.960938 3251.96875 288.960938 3254.300781 286.640625 L 3285.140625 255.789062 C 3287.46875 253.46875 3287.46875 249.730469 3285.140625 247.410156 L 3256.441406 218.699219 L 3285.140625 190 C 3287.46875 187.679688 3287.46875 183.941406 3285.140625 181.609375 L 3254.300781 150.769531 C 3251.96875 148.441406 3248.230469 148.441406 3245.910156 150.769531 L 3217.210938 179.46875 L 3188.511719 150.769531 C 3187.339844 149.601562 3185.828125 149.019531 3184.308594 149.019531 Z M 3184.308594 149.019531 "/>
<path fill-rule="nonzero" fill="rgb(81.639099%, 52.929688%, 43.920898%)" fill-opacity="1" d="M 3396.769531 0 C 3396.339844 0.371094 3395.921875 0.761719 3395.511719 1.160156 C 3390.308594 6.371094 3387.390625 13.429688 3387.390625 20.78125 C 3387.390625 28.140625 3390.308594 35.191406 3395.511719 40.398438 C 3406.351562 51.230469 3423.910156 51.230469 3434.75 40.398438 C 3439.949219 35.191406 3442.871094 28.140625 3442.871094 20.78125 C 3442.871094 13.429688 3439.949219 6.371094 3434.75 1.160156 C 3434.339844 0.761719 3433.921875 0.371094 3433.488281 0 Z M 3396.769531 0 "/>
<path fill-rule="nonzero" fill="rgb(36.863708%, 50.584412%, 67.381287%)" fill-opacity="1" d="M 3462.558594 0 C 3462.128906 0.371094 3461.710938 0.761719 3461.300781 1.160156 C 3456.101562 6.371094 3453.179688 13.429688 3453.179688 20.78125 C 3453.179688 28.140625 3456.101562 35.191406 3461.300781 40.398438 C 3466.5 45.601562 3473.558594 48.519531 3480.921875 48.519531 C 3488.28125 48.519531 3495.328125 45.601562 3500.53125 40.398438 C 3505.738281 35.191406 3508.660156 28.140625 3508.660156 20.78125 C 3508.660156 13.429688 3505.738281 6.371094 3500.53125 1.160156 C 3500.128906 0.761719 3499.710938 0.371094 3499.28125 0 Z M 3462.558594 0 "/>
<path fill-rule="nonzero" fill="rgb(70.506287%, 55.664062%, 67.771912%)" fill-opacity="1" d="M 3368.410156 154.101562 C 3366.460938 154.101562 3364.5 154.851562 3363.011719 156.339844 L 3347.03125 172.320312 C 3344.039062 175.308594 3344.039062 180.121094 3347.03125 183.109375 C 3350.019531 186.101562 3354.839844 186.101562 3357.820312 183.109375 L 3373.800781 167.128906 C 3376.789062 164.140625 3376.789062 159.328125 3373.800781 156.339844 C 3372.308594 154.851562 3370.359375 154.101562 3368.410156 154.101562 Z M 3368.410156 154.101562 "/>
<path fill-rule="nonzero" fill="rgb(70.506287%, 55.664062%, 67.771912%)" fill-opacity="1" d="M 3407.039062 115.46875 C 3405.089844 115.46875 3403.140625 116.210938 3401.640625 117.710938 L 3385.660156 133.691406 C 3382.671875 136.679688 3382.671875 141.488281 3385.660156 144.480469 C 3388.648438 147.46875 3393.46875 147.46875 3396.449219 144.480469 L 3412.429688 128.5 C 3415.421875 125.511719 3415.421875 120.699219 3412.429688 117.710938 C 3410.941406 116.210938 3408.988281 115.46875 3407.039062 115.46875 Z M 3407.039062 115.46875 "/>
<path fill-rule="nonzero" fill="rgb(84.764099%, 87.109375%, 91.40625%)" fill-opacity="1" d="M 3439.011719 456.21875 C 3433.78125 456.21875 3428.558594 458.21875 3424.558594 462.21875 L 3396.269531 490.515625 L 3383.769531 478.015625 C 3382.359375 476.609375 3380.101562 476.609375 3378.691406 478.015625 L 3316.300781 540.40625 C 3314.890625 541.8125 3314.890625 544.078125 3316.300781 545.484375 L 3328.800781 557.984375 L 3165.300781 721.488281 L 3152.800781 708.988281 C 3151.390625 707.582031 3149.128906 707.582031 3147.71875 708.988281 L 3085.328125 771.378906 C 3083.921875 772.785156 3083.921875 775.050781 3085.328125 776.457031 L 3097.828125 788.957031 L 3069.53125 817.25 C 3061.53125 825.253906 3061.53125 838.136719 3069.53125 846.140625 L 3211.78125 988.386719 C 3219.78125 996.390625 3232.671875 996.390625 3240.671875 988.386719 L 3595.699219 633.359375 C 3603.699219 625.355469 3603.699219 612.472656 3595.699219 604.46875 L 3453.449219 462.21875 C 3449.449219 458.21875 3444.230469 456.21875 3439.011719 456.21875 Z M 3439.011719 456.21875 "/>
<path fill-rule="nonzero" fill="rgb(29.80957%, 33.714294%, 41.575623%)" fill-opacity="1" d="M 3184.308594 771.03125 C 3182.800781 771.03125 3181.28125 771.613281 3180.121094 772.777344 L 3149.269531 803.625 C 3146.949219 805.945312 3146.949219 809.6875 3149.269531 812.011719 L 3177.96875 840.710938 L 3149.269531 869.414062 C 3146.949219 871.738281 3146.949219 875.476562 3149.269531 877.800781 L 3180.121094 908.648438 C 3182.441406 910.972656 3186.179688 910.972656 3188.5 908.648438 L 3217.210938 879.945312 L 3245.910156 908.648438 C 3248.230469 910.972656 3251.96875 910.972656 3254.300781 908.648438 L 3285.140625 877.796875 C 3287.46875 875.476562 3287.46875 871.738281 3285.140625 869.414062 L 3256.441406 840.710938 L 3285.140625 812.011719 C 3287.46875 809.6875 3287.46875 805.945312 3285.140625 803.625 L 3254.300781 772.777344 C 3251.96875 770.453125 3248.230469 770.453125 3245.910156 772.777344 L 3217.210938 801.476562 L 3188.511719 772.777344 C 3187.339844 771.613281 3185.828125 771.03125 3184.308594 771.03125 Z M 3184.308594 771.03125 "/>
<path fill-rule="nonzero" fill="rgb(63.867188%, 74.414062%, 54.881287%)" fill-opacity="1" d="M 3414.089844 549.277344 C 3407.101562 549.539062 3400.460938 552.4375 3395.511719 557.386719 C 3384.679688 568.21875 3384.679688 585.785156 3395.511719 596.617188 C 3406.351562 607.449219 3423.910156 607.449219 3434.75 596.617188 C 3445.578125 585.785156 3445.578125 568.21875 3434.75 557.386719 C 3429.289062 551.925781 3421.808594 548.988281 3414.089844 549.277344 Z M 3414.089844 549.277344 "/>
<path fill-rule="nonzero" fill="rgb(74.804688%, 38.035583%, 41.575623%)" fill-opacity="1" d="M 3479.878906 549.277344 C 3472.890625 549.539062 3466.25 552.4375 3461.300781 557.386719 C 3450.46875 568.21875 3450.46875 585.785156 3461.300781 596.617188 C 3466.5 601.820312 3473.558594 604.742188 3480.921875 604.742188 C 3488.28125 604.742188 3495.328125 601.820312 3500.53125 596.617188 C 3511.371094 585.785156 3511.371094 568.21875 3500.53125 557.386719 C 3495.078125 551.925781 3487.589844 548.988281 3479.878906 549.277344 Z M 3479.878906 549.277344 "/>
<path fill-rule="nonzero" fill="rgb(81.639099%, 52.929688%, 43.920898%)" fill-opacity="1" d="M 3414.089844 615.070312 C 3407.101562 615.332031 3400.460938 618.226562 3395.511719 623.175781 C 3390.308594 628.375 3387.390625 635.433594 3387.390625 642.792969 C 3387.390625 650.148438 3390.308594 657.207031 3395.511719 662.410156 C 3406.351562 673.242188 3423.910156 673.242188 3434.75 662.410156 C 3439.949219 657.207031 3442.871094 650.148438 3442.871094 642.792969 C 3442.871094 635.433594 3439.949219 628.375 3434.75 623.175781 C 3429.289062 617.71875 3421.808594 614.78125 3414.089844 615.070312 Z M 3414.089844 615.070312 "/>
<path fill-rule="nonzero" fill="rgb(36.863708%, 50.584412%, 67.381287%)" fill-opacity="1" d="M 3479.878906 615.070312 C 3472.890625 615.332031 3466.25 618.226562 3461.300781 623.175781 C 3456.101562 628.375 3453.179688 635.433594 3453.179688 642.792969 C 3453.179688 650.148438 3456.101562 657.207031 3461.300781 662.410156 C 3466.5 667.609375 3473.558594 670.535156 3480.921875 670.535156 C 3488.28125 670.535156 3495.328125 667.609375 3500.53125 662.410156 C 3505.738281 657.207031 3508.660156 650.148438 3508.660156 642.792969 C 3508.660156 635.433594 3505.738281 628.375 3500.53125 623.175781 C 3495.078125 617.71875 3487.589844 614.78125 3479.878906 615.070312 Z M 3479.878906 615.070312 "/>
<path fill-rule="nonzero" fill="rgb(70.506287%, 55.664062%, 67.771912%)" fill-opacity="1" d="M 3368.410156 776.109375 C 3366.460938 776.109375 3364.5 776.855469 3363.011719 778.351562 L 3347.03125 794.328125 C 3344.039062 797.316406 3344.039062 802.132812 3347.03125 805.121094 C 3350.019531 808.109375 3354.839844 808.109375 3357.820312 805.121094 L 3373.800781 789.140625 C 3376.789062 786.152344 3376.789062 781.339844 3373.800781 778.351562 C 3372.308594 776.855469 3370.359375 776.109375 3368.410156 776.109375 Z M 3368.410156 776.109375 "/>
<path fill-rule="nonzero" fill="rgb(70.506287%, 55.664062%, 67.771912%)" fill-opacity="1" d="M 3407.039062 737.480469 C 3405.089844 737.480469 3403.140625 738.226562 3401.640625 739.71875 L 3385.660156 755.699219 C 3382.671875 758.6875 3382.671875 763.5 3385.660156 766.488281 C 3388.648438 769.480469 3393.46875 769.480469 3396.449219 766.488281 L 3412.429688 750.511719 C 3415.421875 747.523438 3415.421875 742.707031 3412.429688 739.71875 C 3410.941406 738.226562 3408.988281 737.480469 3407.039062 737.480469 Z M 3407.039062 737.480469 "/>
<path fill-rule="nonzero" fill="rgb(84.764099%, 87.109375%, 91.40625%)" fill-opacity="1" d="M 3439.011719 1078.230469 C 3433.78125 1078.230469 3428.558594 1080.230469 3424.558594 1084.230469 L 3396.269531 1112.527344 L 3383.769531 1100.027344 C 3382.359375 1098.621094 3380.101562 1098.621094 3378.691406 1100.027344 L 3316.300781 1162.417969 C 3314.890625 1163.824219 3314.890625 1166.085938 3316.300781 1167.492188 L 3328.800781 1179.992188 L 3165.300781 1343.496094 L 3152.800781 1331 C 3151.390625 1329.589844 3149.128906 1329.589844 3147.71875 1331 L 3085.328125 1393.390625 C 3083.921875 1394.796875 3083.921875 1397.0625 3085.328125 1398.46875 L 3097.828125 1410.964844 L 3069.53125 1439.257812 C 3063.160156 1445.628906 3061.878906 1455.089844 3065.660156 1462.722656 L 3388.351562 1462.722656 L 3595.699219 1255.367188 C 3603.699219 1247.367188 3603.699219 1234.480469 3595.699219 1226.476562 L 3453.449219 1084.230469 C 3449.449219 1080.230469 3444.230469 1078.230469 3439.011719 1078.230469 Z M 3439.011719 1078.230469 "/>
<path fill-rule="nonzero" fill="rgb(29.80957%, 33.714294%, 41.575623%)" fill-opacity="1" d="M 3184.308594 1393.042969 C 3182.800781 1393.042969 3181.28125 1393.625 3180.121094 1394.785156 L 3149.269531 1425.632812 C 3146.949219 1427.957031 3146.949219 1431.695312 3149.269531 1434.019531 L 3177.96875 1462.722656 L 3256.441406 1462.722656 L 3285.140625 1434.019531 C 3287.46875 1431.695312 3287.46875 1427.957031 3285.140625 1425.632812 L 3254.300781 1394.785156 C 3251.96875 1392.460938 3248.230469 1392.460938 3245.910156 1394.785156 L 3217.210938 1423.488281 L 3188.511719 1394.785156 C 3187.339844 1393.625 3185.828125 1393.042969 3184.308594 1393.042969 Z M 3184.308594 1393.042969 "/>
<path fill-rule="nonzero" fill="rgb(63.867188%, 74.414062%, 54.881287%)" fill-opacity="1" d="M 3414.089844 1171.289062 C 3407.101562 1171.550781 3400.460938 1174.445312 3395.511719 1179.394531 C 3390.308594 1184.597656 3387.390625 1191.652344 3387.390625 1199.011719 C 3387.390625 1206.367188 3390.308594 1213.425781 3395.511719 1218.628906 C 3406.351562 1229.460938 3423.910156 1229.460938 3434.75 1218.628906 C 3439.949219 1213.425781 3442.871094 1206.367188 3442.871094 1199.011719 C 3442.871094 1191.652344 3439.949219 1184.597656 3434.75 1179.394531 C 3429.289062 1173.9375 3421.808594 1171 3414.089844 1171.289062 Z M 3414.089844 1171.289062 "/>
<path fill-rule="nonzero" fill="rgb(74.804688%, 38.035583%, 41.575623%)" fill-opacity="1" d="M 3479.878906 1171.289062 C 3472.890625 1171.550781 3466.25 1174.445312 3461.300781 1179.394531 C 3456.101562 1184.597656 3453.179688 1191.652344 3453.179688 1199.011719 C 3453.179688 1206.367188 3456.101562 1213.425781 3461.300781 1218.628906 C 3466.5 1223.832031 3473.558594 1226.753906 3480.921875 1226.753906 C 3488.28125 1226.753906 3495.328125 1223.832031 3500.53125 1218.628906 C 3505.738281 1213.425781 3508.660156 1206.367188 3508.660156 1199.011719 C 3508.660156 1191.652344 3505.738281 1184.597656 3500.53125 1179.394531 C 3495.078125 1173.9375 3487.589844 1171 3479.878906 1171.289062 Z M 3479.878906 1171.289062 "/>
<path fill-rule="nonzero" fill="rgb(81.639099%, 52.929688%, 43.920898%)" fill-opacity="1" d="M 3414.089844 1237.078125 C 3407.101562 1237.339844 3400.460938 1240.234375 3395.511719 1245.183594 C 3384.679688 1256.019531 3384.679688 1273.582031 3395.511719 1284.417969 C 3406.351562 1295.25 3423.910156 1295.25 3434.75 1284.417969 C 3445.578125 1273.582031 3445.578125 1256.019531 3434.75 1245.183594 C 3429.289062 1239.726562 3421.808594 1236.789062 3414.089844 1237.078125 Z M 3414.089844 1237.078125 "/>
<path fill-rule="nonzero" fill="rgb(36.863708%, 50.584412%, 67.381287%)" fill-opacity="1" d="M 3479.878906 1237.078125 C 3472.890625 1237.339844 3466.25 1240.234375 3461.300781 1245.183594 C 3456.101562 1250.386719 3453.179688 1257.441406 3453.179688 1264.800781 C 3453.179688 1272.15625 3456.101562 1279.214844 3461.300781 1284.417969 C 3466.5 1289.621094 3473.558594 1292.542969 3480.921875 1292.542969 C 3488.28125 1292.542969 3495.328125 1289.621094 3500.53125 1284.417969 C 3505.738281 1279.214844 3508.660156 1272.15625 3508.660156 1264.800781 C 3508.660156 1257.441406 3505.738281 1250.386719 3500.53125 1245.183594 C 3495.078125 1239.726562 3487.589844 1236.789062 3479.878906 1237.078125 Z M 3479.878906 1237.078125 "/>
<path fill-rule="nonzero" fill="rgb(70.506287%, 55.664062%, 67.771912%)" fill-opacity="1" d="M 3368.410156 1398.117188 C 3366.460938 1398.117188 3364.5 1398.867188 3363.011719 1400.359375 L 3347.03125 1416.339844 C 3344.039062 1419.328125 3344.039062 1424.140625 3347.03125 1427.132812 C 3350.019531 1430.121094 3354.839844 1430.121094 3357.820312 1427.132812 L 3373.800781 1411.152344 C 3376.789062 1408.164062 3376.789062 1403.351562 3373.800781 1400.359375 C 3372.308594 1398.867188 3370.359375 1398.117188 3368.410156 1398.117188 Z M 3368.410156 1398.117188 "/>
<path fill-rule="nonzero" fill="rgb(70.506287%, 55.664062%, 67.771912%)" fill-opacity="1" d="M 3407.039062 1359.488281 C 3405.089844 1359.488281 3403.140625 1360.234375 3401.640625 1361.730469 L 3385.660156 1377.707031 C 3382.671875 1380.695312 3382.671875 1385.511719 3385.660156 1388.5 C 3388.648438 1391.488281 3393.46875 1391.488281 3396.449219 1388.5 L 3412.429688 1372.519531 C 3415.421875 1369.53125 3415.421875 1364.71875 3412.429688 1361.730469 C 3410.941406 1360.234375 3408.988281 1359.488281 3407.039062 1359.488281 Z M 3407.039062 1359.488281 "/>
<path fill-rule="nonzero" fill="rgb(84.764099%, 87.109375%, 91.40625%)" fill-opacity="1" d="M 3931.300781 0 L 3831.820312 99.480469 L 3819.320312 86.980469 C 3817.910156 85.570312 3815.648438 85.570312 3814.238281 86.980469 L 3751.851562 149.371094 C 3750.441406 150.78125 3750.441406 153.039062 3751.851562 154.449219 L 3764.351562 166.941406 L 3736.058594 195.238281 C 3728.058594 203.238281 3728.058594 216.128906 3736.058594 224.128906 L 3878.308594 366.378906 C 3886.308594 374.378906 3899.191406 374.378906 3907.191406 366.378906 L 3951.671875 321.898438 L 3951.671875 0 Z M 3931.300781 0 "/>
<path fill-rule="nonzero" fill="rgb(29.80957%, 33.714294%, 41.575623%)" fill-opacity="1" d="M 3850.839844 149.019531 C 3849.320312 149.019531 3847.808594 149.601562 3846.640625 150.769531 L 3815.800781 181.609375 C 3813.46875 183.941406 3813.46875 187.679688 3815.800781 190 L 3844.5 218.699219 L 3815.800781 247.410156 C 3813.46875 249.730469 3813.46875 253.46875 3815.800781 255.789062 L 3846.640625 286.640625 C 3848.96875 288.960938 3852.710938 288.960938 3855.03125 286.640625 L 3883.730469 257.941406 L 3912.429688 286.640625 C 3914.761719 288.960938 3918.5 288.960938 3920.820312 286.640625 L 3951.671875 255.789062 L 3951.671875 247.410156 L 3922.96875 218.699219 L 3951.671875 190 L 3951.671875 181.609375 L 3920.820312 150.769531 C 3918.5 148.441406 3914.761719 148.441406 3912.429688 150.769531 L 3883.730469 179.46875 L 3855.03125 150.769531 C 3853.871094 149.601562 3852.351562 149.019531 3850.839844 149.019531 Z M 3850.839844 149.019531 "/>
<path fill-rule="nonzero" fill="rgb(84.764099%, 87.109375%, 91.40625%)" fill-opacity="1" d="M 3951.671875 601.636719 L 3831.820312 721.488281 L 3819.320312 708.988281 C 3817.910156 707.582031 3815.648438 707.582031 3814.238281 708.988281 L 3751.851562 771.378906 C 3750.441406 772.785156 3750.441406 775.050781 3751.851562 776.457031 L 3764.351562 788.957031 L 3736.058594 817.25 C 3728.058594 825.253906 3728.058594 838.136719 3736.058594 846.140625 L 3878.308594 988.386719 C 3886.308594 996.390625 3899.191406 996.390625 3907.191406 988.386719 L 3951.671875 943.914062 Z M 3951.671875 601.636719 "/>
<path fill-rule="nonzero" fill="rgb(29.80957%, 33.714294%, 41.575623%)" fill-opacity="1" d="M 3850.839844 771.03125 C 3849.320312 771.03125 3847.808594 771.613281 3846.640625 772.777344 L 3815.800781 803.625 C 3813.46875 805.945312 3813.46875 809.6875 3815.800781 812.011719 L 3844.5 840.710938 L 3815.800781 869.414062 C 3813.46875 871.738281 3813.46875 875.476562 3815.800781 877.800781 L 3846.640625 908.648438 C 3848.96875 910.972656 3852.710938 910.972656 3855.03125 908.648438 L 3883.730469 879.945312 L 3912.429688 908.648438 C 3914.761719 910.972656 3918.5 910.972656 3920.820312 908.648438 L 3951.671875 877.796875 L 3951.671875 869.414062 L 3922.96875 840.710938 L 3951.671875 812.011719 L 3951.671875 803.625 L 3920.820312 772.777344 C 3918.5 770.453125 3914.761719 770.453125 3912.429688 772.777344 L 3883.730469 801.476562 L 3855.03125 772.777344 C 3853.871094 771.613281 3852.351562 771.03125 3850.839844 771.03125 Z M 3850.839844 771.03125 "/>
<path fill-rule="nonzero" fill="rgb(84.764099%, 87.109375%, 91.40625%)" fill-opacity="1" d="M 3951.671875 1223.648438 L 3831.820312 1343.496094 L 3819.320312 1331 C 3817.910156 1329.589844 3815.648438 1329.589844 3814.238281 1331 L 3751.851562 1393.390625 C 3750.441406 1394.796875 3750.441406 1397.0625 3751.851562 1398.46875 L 3764.351562 1410.964844 L 3736.058594 1439.257812 C 3729.679688 1445.628906 3728.410156 1455.089844 3732.179688 1462.722656 L 3951.671875 1462.722656 Z M 3951.671875 1223.648438 "/>
<path fill-rule="nonzero" fill="rgb(29.80957%, 33.714294%, 41.575623%)" fill-opacity="1" d="M 3850.839844 1393.042969 C 3849.320312 1393.042969 3847.808594 1393.625 3846.640625 1394.785156 L 3815.800781 1425.632812 C 3813.46875 1427.957031 3813.46875 1431.695312 3815.800781 1434.019531 L 3844.5 1462.722656 L 3922.96875 1462.722656 L 3951.671875 1434.019531 L 3951.671875 1425.632812 L 3920.820312 1394.785156 C 3918.5 1392.460938 3914.761719 1392.460938 3912.429688 1394.785156 L 3883.730469 1423.488281 L 3855.03125 1394.785156 C 3853.871094 1393.625 3852.351562 1393.042969 3850.839844 1393.042969 Z M 3850.839844 1393.042969 "/>
</svg>
